<?xml version="1.0" encoding="UTF-8" standalone="no"?>
<!-- Creator: CorelDRAW X7 -->

<svg
   xmlns:dc="http://purl.org/dc/elements/1.1/"
   xmlns:cc="http://creativecommons.org/ns#"
   xmlns:rdf="http://www.w3.org/1999/02/22-rdf-syntax-ns#"
   xmlns:svg="http://www.w3.org/2000/svg"
   xmlns="http://www.w3.org/2000/svg"
   xmlns:sodipodi="http://sodipodi.sourceforge.net/DTD/sodipodi-0.dtd"
   xmlns:inkscape="http://www.inkscape.org/namespaces/inkscape"
   xml:space="preserve"
   width="750"
   height="300"
   version="1.1"
   style="fill-rule:evenodd"
   viewBox="0 0 368.1486 147.27273"
   id="svg2"
   inkscape:version="0.48.4 r9939"
   sodipodi:docname="logo-fpconf.svg"><metadata
     id="metadata25"><rdf:RDF><cc:Work
         rdf:about=""><dc:format>image/svg+xml</dc:format><dc:type
           rdf:resource="http://purl.org/dc/dcmitype/StillImage" /><dc:title /></cc:Work></rdf:RDF></metadata><sodipodi:namedview
     pagecolor="#ffffff"
     bordercolor="#666666"
     borderopacity="1"
     objecttolerance="10"
     gridtolerance="10"
     guidetolerance="10"
     inkscape:pageopacity="0"
     inkscape:pageshadow="2"
     inkscape:window-width="1631"
     inkscape:window-height="1026"
     id="namedview23"
     showgrid="false"
     inkscape:zoom="1.0645359"
     inkscape:cx="12.723779"
     inkscape:cy="195.79918"
     inkscape:window-x="49"
     inkscape:window-y="24"
     inkscape:window-maximized="1"
     inkscape:current-layer="svg2" /><defs
     id="defs4"><style
       type="text/css"
       id="style6">
    .fil0 {fill:white;fill-rule:nonzero}
   </style></defs><rect
     style="fill:#000000;fill-opacity:1;fill-rule:evenodd;stroke:none"
     id="rect3002"
     width="368.18182"
     height="147.27274"
     x="-0.0166125"
     y="-5.5781952e-06" /><g
     id="Layer_x0020_1"
     transform="translate(20.074299,16.136362)"><metadata
       id="CorelCorpID_0Corel-Layer" /><g
       id="logo.pdf"><path
         class="fil0"
         d="m 68,7 c 0,6 -4,8 -6,8 -1,0 -2,0 -2,-1 0,-1 0,-2 0,-3 0,-5 -2,-8 -4,-8 -3,0 -5,2 -8,7 -2,5 -5,14 -7,26 0,0 1,1 1,1 l 12,-1 c 0,0 1,1 1,2 0,0 -1,2 -1,2 l -13,1 c 0,0 -1,1 -1,1 -2,12 -3,18 -6,34 -2,9 -7,16 -13,21 -4,3 -9,5 -13,5 -4,0 -8,-3 -8,-6 0,-2 2,-4 3,-5 0,-1 1,-1 2,-1 3,4 7,6 10,6 2,0 5,-1 8,-17 2,-12 4,-26 6,-36 0,-1 0,-2 -1,-2 l -8,1 c -1,0 -1,-1 -1,-2 0,-1 1,-2 1,-2 l 9,-1 c 1,0 1,-1 1,-1 C 34,21 39,9 46,4 50,1 54,0 58,0 l 0,0 c 6,0 10,4 10,7 z"
         id="path11"
         inkscape:connector-curvature="0"
         style="fill:#ffffff;fill-rule:nonzero" /><path
         class="fil0"
         d="m 68,67 c 0,2 1,4 1,4 2,2 5,3 7,3 C 88,74 96,63 96,51 96,44 92,39 85,39 76,39 68,45 68,67 z m 27,8 c -5,5 -11,7 -15,7 -4,0 -8,-3 -11,-7 0,0 -1,0 -1,1 0,7 1,25 2,30 0,3 1,5 1,7 0,0 -1,2 -2,2 -1,0 -4,0 -6,-1 -2,-1 -3,-4 -3,-5 0,-2 1,-40 1,-54 0,-9 3,-15 8,-20 4,-3 9,-4 12,-4 11,0 21,12 21,25 0,8 -3,14 -7,19 z"
         id="path13"
         inkscape:connector-curvature="0"
         style="fill:#ffffff;fill-rule:nonzero" /><path
         class="fil0"
         d="m 145,40 c 0,1 -1,1 -1,1 -15,0 -26,8 -26,19 0,7 4,11 11,11 3,0 8,0 11,0 2,0 4,1 5,2 1,2 2,5 2,8 0,10 -8,21 -15,21 -1,0 -3,0 -4,-2 -1,-1 -2,-3 -1,-4 0,-1 0,-2 2,-2 7,-2 13,-7 13,-10 0,-1 0,-3 -2,-3 -3,0 -9,1 -13,1 -4,0 -6,-1 -8,-3 -3,-3 -6,-8 -6,-17 0,-10 6,-20 11,-24 7,-5 12,-7 16,-7 3,0 7,2 7,5 0,1 -1,3 -2,4 z"
         id="path15"
         inkscape:connector-curvature="0"
         style="fill:#ffffff;fill-rule:nonzero" /><path
         class="fil0"
         d="m 168,47 c -3,3 -6,9 -5,15 0,3 2,7 5,10 2,1 5,1 6,1 4,0 10,-1 14,-6 4,-3 6,-9 6,-15 0,-2 0,-4 0,-5 -1,-2 -5,-7 -11,-7 -5,0 -11,2 -15,7 z m 22,-11 c 7,5 9,13 9,20 0,10 -4,17 -7,21 -5,5 -12,6 -15,6 -3,0 -8,-2 -13,-7 -4,-5 -6,-12 -6,-18 0,-7 1,-13 6,-18 4,-6 11,-9 16,-9 4,0 7,2 10,5 z"
         id="path17"
         inkscape:connector-curvature="0"
         style="fill:#ffffff;fill-rule:nonzero" /><path
         class="fil0"
         d="m 225,34 c 1,3 1,7 1,10 0,4 -1,11 -1,13 0,1 1,1 1,0 5,-11 9,-18 13,-22 3,-2 6,-4 9,-4 3,0 6,4 7,8 0,2 1,6 1,10 0,36 0,59 0,63 0,0 -2,1 -2,1 -2,0 -8,-2 -8,-4 -1,-1 -1,-3 0,-7 1,-10 5,-51 5,-55 0,-4 -1,-7 -4,-7 -2,0 -6,1 -9,7 -5,8 -8,16 -13,35 0,0 -1,1 -2,1 -1,0 -4,-2 -4,-2 -1,-1 -1,-2 -1,-2 0,-2 3,-14 3,-19 1,-4 2,-12 -1,-15 -1,-2 -3,-3 -4,-3 -2,0 -3,0 -4,1 -1,0 -2,-1 -2,-1 0,-2 1,-4 1,-5 3,-5 7,-6 9,-6 2,0 3,1 5,3 z"
         id="path19"
         inkscape:connector-curvature="0"
         style="fill:#ffffff;fill-rule:nonzero" /><path
         class="fil0"
         d="m 328,7 c 0,6 -4,8 -6,8 -1,0 -2,0 -2,-1 0,-1 0,-2 0,-3 0,-5 -2,-8 -4,-8 -3,0 -5,2 -8,7 -2,5 -5,14 -7,26 0,0 1,1 1,1 l 12,-1 c 0,0 1,1 1,2 0,0 -1,2 -1,2 l -13,1 c 0,0 -1,1 -1,1 -2,12 -3,18 -6,34 -2,9 -7,16 -13,21 -4,3 -8,5 -12,5 -4,0 -7,-3 -7,-6 0,-2 1,-4 2,-5 1,-1 2,-1 2,-1 3,4 6,6 9,6 2,0 5,-1 8,-17 2,-12 4,-26 6,-36 0,-1 0,-2 -1,-2 l -8,1 c -1,0 -1,-1 -1,-2 0,-1 1,-2 1,-2 l 9,-1 c 1,0 1,-1 1,-1 4,-15 9,-27 16,-32 4,-3 8,-4 12,-4 l 0,0 c 7,0 10,4 10,7 z"
         id="path21"
         inkscape:connector-curvature="0"
         style="fill:#ffffff;fill-rule:nonzero" /></g></g></svg>