<?xml version="1.0" encoding="UTF-8" standalone="no"?>
<svg
   xmlns:dc="http://purl.org/dc/elements/1.1/"
   xmlns:cc="http://creativecommons.org/ns#"
   xmlns:rdf="http://www.w3.org/1999/02/22-rdf-syntax-ns#"
   xmlns:svg="http://www.w3.org/2000/svg"
   xmlns="http://www.w3.org/2000/svg"
   xmlns:sodipodi="http://sodipodi.sourceforge.net/DTD/sodipodi-0.dtd"
   xmlns:inkscape="http://www.inkscape.org/namespaces/inkscape"
   width="1396pt"
   height="716pt"
   viewBox="0 0 1396 716"
   version="1.1"
   id="svg2"
   inkscape:version="0.48.2 r9819"
   sodipodi:docname="00001.svg">
  <metadata
     id="metadata134">
    <rdf:RDF>
      <cc:Work
         rdf:about="">
        <dc:format>image/svg+xml</dc:format>
        <dc:type
           rdf:resource="http://purl.org/dc/dcmitype/StillImage" />
        <dc:title></dc:title>
      </cc:Work>
    </rdf:RDF>
  </metadata>
  <defs
     id="defs132" />
  <sodipodi:namedview
     pagecolor="#ffffff"
     bordercolor="#666666"
     borderopacity="1"
     objecttolerance="10"
     gridtolerance="10"
     guidetolerance="10"
     inkscape:pageopacity="0"
     inkscape:pageshadow="2"
     inkscape:window-width="1920"
     inkscape:window-height="1137"
     id="namedview130"
     showgrid="false"
     inkscape:zoom="0.34524641"
     inkscape:cx="758.48577"
     inkscape:cy="353.36253"
     inkscape:window-x="-4"
     inkscape:window-y="-4"
     inkscape:window-maximized="1"
     inkscape:current-layer="svg2" />
  <g
     id="g3319"
     transform="matrix(0.98172103,0,0,0.98995686,11.614329,20.854668)">
    <path
       id="path6"
       d="m 2.47,0 1.99,0 c 0.71,3.96 0.38,8 0.43,12 -0.01,225.6 0.01,451.2 0,676.8 2.23,0 4.46,0 6.68,0.01 6.41,0.01 12.81,0 19.21,-0.02 144.29,0.05 288.59,0 432.88,0.02 6.88,0 13.75,0 20.63,0 303.9,0 607.81,0 911.71,0 l 0,3.36 c -464.79,0 -929.58,0 -1394.38,0 0,-227.4 0.01,-454.81 0,-682.21 C 1.81,6.65 0.97,3.1 2.47,0 z"
       inkscape:connector-curvature="0"
       style="fill:#000000" />
    <path
       id="path10"
       d="m 456.62,20.63 c 3.29,-5.48 8.67,-10.9 15.5,-10.82 7.87,0.96 12.29,8.46 14.83,15.21 7.96,20.7 10.13,42.96 13.57,64.71 7.08,58.88 10.88,118.06 14.61,177.18 0.85,5.03 -0.03,10.19 0.94,15.22 0.68,4.36 0.02,8.81 0.67,13.18 0.88,5.46 0.17,11.03 1.15,16.49 0.48,13.16 1.56,26.28 2,39.44 1.23,6.11 0.03,12.39 1.16,18.51 0.67,4.73 -0.07,9.54 0.73,14.27 0.82,4.97 0.04,10.04 0.75,15.03 0.72,4.92 0.04,9.94 0.88,14.87 0.77,5.01 -0.06,10.12 0.78,15.13 0.85,5.03 0.01,10.15 0.73,15.19 1.14,6.12 -0.07,12.41 1.17,18.53 0.43,5.71 -0.01,11.46 0.95,17.13 -0.08,8.42 1.03,16.76 0.99,25.18 1.13,6.06 0.21,12.26 1.29,18.32 0.6,4.89 -0.19,9.85 0.64,14.72 0.95,5.21 0,10.54 0.81,15.77 0.92,5.04 0.07,10.21 0.92,15.27 0.79,4.99 0.04,10.08 0.76,15.09 0.74,4.92 -0.01,9.93 0.85,14.85 0.73,4.64 -0.03,9.38 0.73,14.02 0.98,5.21 0.01,10.55 0.89,15.77 0.86,4.79 0.08,9.69 0.77,14.5 0.84,5.43 0.21,10.95 1.1,16.38 -0.09,8.56 1.43,17.04 0.99,25.61 -3.33,0.12 -6.62,0.68 -9.9,1.21 -1.33,-5.16 -0.3,-10.53 -1.08,-15.75 -0.93,-5.22 -0.02,-10.56 -0.98,-15.76 -0.78,-4.93 0.08,-9.96 -0.75,-14.87 -0.92,-5.01 -0.04,-10.13 -0.86,-15.14 -0.79,-4.7 -0.09,-9.5 -0.88,-14.19 -0.77,-5.1 -0.05,-10.28 -0.81,-15.37 -0.63,-4.51 0,-9.09 -0.69,-13.58 -0.97,-5.46 0.04,-11.04 -0.93,-16.49 -0.75,-4.44 -0.11,-8.96 -0.57,-13.42 -1.25,-6.6 -0.13,-13.35 -1.36,-19.95 -0.02,-8.08 -1.06,-16.1 -0.98,-24.18 -1.19,-6.7 -0.24,-13.53 -1.38,-20.21 -0.5,-4.59 0.18,-9.24 -0.55,-13.81 -1.06,-5.58 0.03,-11.3 -0.94,-16.89 -0.81,-4.73 -0.07,-9.54 -0.66,-14.28 -1.06,-6.21 -0.14,-12.54 -1.21,-18.75 0.07,-8.4 -1.23,-16.72 -1.05,-25.13 -1.17,-5.91 -0.38,-11.94 -1.04,-17.89 -1.04,-5.29 -0.11,-10.71 -0.97,-16.01 -0.81,-4.96 -0.02,-10.02 -0.86,-14.98 -0.71,-4.78 -0.1,-9.64 -0.8,-14.42 -0.64,-4.52 -0.01,-9.12 -0.69,-13.64 -0.88,-4.92 -0.06,-9.96 -0.94,-14.88 -0.81,-4.92 0.05,-9.95 -0.88,-14.86 -0.87,-4.99 0.29,-10.15 -1.03,-15.08 -0.44,-16.39 -2.08,-32.71 -2.8,-49.08 -0.99,-4.91 -0.29,-9.94 -1.09,-14.87 -2.56,-35.73 -5.33,-71.46 -9.3,-107.07 -2.94,-23.66 -5.72,-47.48 -12.32,-70.46 -1.93,-5.54 -4.05,-11.31 -8.32,-15.52 -3.2,2.81 -6.12,6.11 -7.08,10.39 -2.06,8.33 -2.44,16.97 -3.23,25.48 -0.84,4.95 -0.02,10 -0.89,14.94 -0.84,5.02 0.03,10.14 -0.82,15.15 -0.89,5.05 0.01,10.21 -0.81,15.26 -0.45,2.62 -0.55,5.29 -0.39,7.94 -2.77,-11.52 -5.55,-23.02 -8.66,-34.45 0.76,-4.88 -0.02,-9.85 0.74,-14.73 0.78,-4.28 0.19,-8.68 0.94,-12.96 0.94,-8.94 1.42,-18.33 5.66,-26.45 z"
       inkscape:connector-curvature="0"
       style="fill:#1f1a17" />
    <path
       id="path12"
       d="m 393.34,63.37 c 5.4,-8.01 11.95,-16.54 21.78,-19.06 8.74,-2.6 18.29,1.92 23.45,9.07 4.93,6.35 8.25,13.77 10.71,21.39 3.11,11.43 5.89,22.93 8.66,34.45 4.73,23.7 7.48,47.76 9.86,71.79 3.21,31.99 5.26,64.08 7.05,96.16 0.83,16.3 1.88,32.59 2.13,48.91 1.32,8.44 0.02,17.01 1.26,25.45 0.81,7.87 -0.34,15.8 0.67,23.66 1.12,8.72 -0.12,17.53 0.71,26.27 1.28,10.17 0.09,20.44 0.72,30.65 1.55,14.57 -0.47,29.29 1.3,43.85 0.63,16.33 -0.73,32.73 0.96,49.01 0.02,16.99 0.04,33.99 -0.03,50.98 -0.23,5.72 1.04,11.36 0.93,17.07 -0.1,23.68 0.01,47.35 -0.06,71.02 -0.33,8.28 1.46,16.48 0.85,24.77 -6.88,0 -13.75,0 -20.63,0 0,-18.26 -0.03,-36.52 0.03,-54.78 0.06,-4.71 -0.89,-9.35 -0.89,-14.04 0.05,-21.35 0.03,-42.69 0.02,-64.04 -1.55,-18.63 -0.22,-37.36 -0.85,-56.02 -1.88,-16.26 0.43,-32.71 -1.43,-48.97 -0.51,-10.35 0.31,-20.74 -0.37,-31.08 -1.5,-10.56 0.23,-21.26 -1.13,-31.82 -0.94,-8.41 0.31,-16.91 -0.72,-25.31 -1.03,-7.42 0.11,-14.93 -0.85,-22.34 -0.76,-6.42 0.15,-12.9 -0.78,-19.3 -0.84,-6.01 0.07,-12.11 -0.75,-18.12 -0.88,-6.06 -0.08,-12.21 -1,-18.26 -1.48,-30.48 -3.58,-60.96 -6.24,-91.38 0.15,-6.49 -0.93,-12.92 -1.52,-19.37 -0.98,-8.57 -1.71,-17.17 -3.26,-25.66 -3.02,-19.72 -5.87,-39.54 -11.24,-58.79 -2.77,-9.04 -5.63,-18.37 -11.76,-25.79 -4.21,2.03 -7.15,5.72 -9.66,9.54 -9.9,15.02 -14.76,32.55 -20.49,49.41 -6.95,23.55 -13.31,47.27 -18.83,71.19 -12.29,50.89 -23.46,102.05 -36.14,152.85 -6.87,1.35 -14.05,1.38 -20.76,-0.8 15.24,-60.35 28.07,-121.28 43.29,-181.63 5.51,-21.96 11.42,-43.84 18.75,-65.27 4.28,-12.36 9.39,-24.5 16.26,-35.66 z"
       inkscape:connector-curvature="0"
       style="fill:#e77844" />
    <path
       id="path16"
       d="m 443.92,148.32 c 1.55,8.49 2.28,17.09 3.26,25.66 0.59,6.45 1.67,12.88 1.52,19.37 -3.04,14.2 -5.5,28.55 -9.72,42.47 -9.22,32.79 -23.26,65.18 -46.59,90.49 -3.08,3.93 -6.81,7.28 -10.66,10.43 -4.78,4.66 -10.39,8.36 -16.08,11.81 -10.08,5.36 -21.51,7.57 -32.77,8.74 -0.86,0.01 -2.57,0.04 -3.42,0.05 -0.44,-1.55 -0.8,-3.12 -1.15,-4.68 0.14,1.64 0.27,3.29 0.41,4.94 -5.49,-0.21 -10.92,-1.04 -16.35,-1.82 -17.09,-3.08 -32.83,-10.94 -48.89,-17.25 -9.8,-3.51 -19.81,-7.66 -30.44,-6.94 -7.83,-0.21 -14.96,3.74 -20.61,8.85 -7.09,7.37 -12.22,16.35 -16.23,25.71 -11.39,27.77 -16.88,57.51 -21.55,87.02 -2.88,-6.83 -5.09,-13.93 -7.01,-21.08 0.57,-6.11 2.15,-12.07 3.27,-18.09 4.97,-22.14 10.68,-44.47 21.61,-64.52 6.83,-11.68 16.24,-23.4 29.93,-26.92 15.51,-4.68 31.53,0.95 46.02,6.49 15.31,6.19 30.45,13.01 46.57,16.88 6.71,2.18 13.89,2.15 20.76,0.8 6.29,-0.84 12.59,-1.95 18.54,-4.23 7.12,-2.64 13.42,-7.06 19.13,-12 9.99,-8.74 19.17,-18.65 25.79,-30.22 12.13,-18.03 20.26,-38.35 27.22,-58.83 0.06,-0.53 0.2,-1.58 0.26,-2.1 3.31,-9.36 5.31,-19.12 7.56,-28.77 4.62,-20.5 7.74,-41.36 9.62,-62.26 z"
       inkscape:connector-curvature="0"
       style="fill:#1f1a17" />
    <path
       id="path18"
       d="m 781.95,155.7 c 6.86,-2.4 14.23,-2.3 21.29,-0.87 2.91,1.08 5.75,2.37 8.47,3.89 -0.6,1.04 -1.18,2.09 -1.76,3.14 -0.84,1 -1.7,1.97 -2.56,2.94 -2.98,-1.74 -6.18,-3.04 -9.5,-3.91 -13.3,-2.59 -27.49,7.86 -29.43,21.17 0.19,4.69 -0.96,9.77 1.37,14.1 0.64,1.43 1.35,2.83 2.03,4.25 3.1,4.82 7.8,8.71 13.27,10.53 1.24,0.42 2.46,0.86 3.69,1.36 2.81,0.08 5.64,0.08 8.47,0 3.57,-1.01 7.15,-2.07 10.4,-3.93 1.72,1.76 3.48,3.5 5.28,5.2 -4.06,2.05 -8.15,4.13 -12.59,5.2 -6.08,0.07 -12.4,0.83 -18.2,-1.43 -10.89,-3.81 -19.43,-13.91 -21.03,-25.39 -0.32,-5.74 -0.32,-11.56 1.67,-17.03 2.24,-4.58 4.45,-9.39 8.42,-12.76 3.22,-2.66 6.73,-5.1 10.71,-6.46 z"
       inkscape:connector-curvature="0"
       style="fill:#000000" />
    <path
       id="path20"
       d="m 687.92,155.53 c 0.75,0 1.52,0.01 2.29,0.01 0,20.59 0,41.17 0,61.76 -2.5,0 -4.99,0 -7.48,0 -0.03,-15.26 0.06,-30.52 -0.05,-45.78 -12.56,15.61 -26.32,30.28 -38.94,45.85 -0.76,-0.03 -2.26,-0.08 -3.02,-0.11 0.01,-20.58 0,-41.15 0.01,-61.72 2.48,0 4.98,0 7.47,0 0.03,15.48 -0.05,30.97 0.04,46.45 13.48,-15.26 26.49,-30.94 39.68,-46.46 z"
       inkscape:connector-curvature="0"
       style="fill:#000000" />
    <path
       id="path22"
       d="m 709.16,155.54 c 2.45,0 4.9,0 7.37,0 0,8.52 -0.02,17.04 0,25.57 10.12,0.01 20.24,-0.01 30.35,0.01 0.31,-8.51 0.28,-17.04 0.02,-25.56 2.22,-0.02 4.44,-0.03 6.68,-0.03 0,20.59 0,41.18 0,61.78 -2.24,-0.01 -4.46,-0.01 -6.68,-0.02 0.35,-9.88 0.1,-19.77 0.18,-29.65 -10.19,-0.04 -20.37,-0.01 -30.55,-0.02 -0.01,9.89 -0.01,19.79 0,29.68 -2.47,0 -4.92,0 -7.37,0 0,-20.59 0,-41.17 0,-61.76 z"
       inkscape:connector-curvature="0"
       style="fill:#000000" />
    <path
       id="path24"
       d="m 820.33,155.54 c 11.51,0 23.02,0 34.52,0 -0.01,2.2 0,4.41 0,6.62 -4.67,0 -9.33,0 -14,0 0,18.38 0,36.76 0.01,55.14 -2.19,0 -4.36,0 -6.53,0 0,-18.38 0,-36.76 0,-55.14 -4.67,0 -9.33,0 -14,0 0,-2.21 -0.01,-4.41 0,-6.62 z"
       inkscape:connector-curvature="0"
       style="fill:#000000" />
    <path
       id="path26"
       d="m 867.34,217.56 c -0.13,-20.68 -0.03,-41.35 -0.06,-62.02 2.45,0 4.9,0 7.36,0 0.06,15.51 -0.13,31.02 0.1,46.53 13.21,-15.03 25.99,-30.48 39.01,-45.67 0.7,-0.31 2.09,-0.93 2.79,-1.24 0.23,20.71 0.03,41.43 0.1,62.14 -2.46,0 -4.91,0 -7.35,0 -0.06,-15.23 0.11,-30.47 -0.09,-45.7 -12.25,14.94 -25.27,29.22 -37.65,44.04 -0.85,1.58 -2.66,1.71 -4.21,1.92 z"
       inkscape:connector-curvature="0"
       style="fill:#000000" />
    <path
       id="path28"
       d="m 926.54,155.54 c 11.55,0 23.09,0 34.64,0 -0.01,2.2 -0.01,4.41 0,6.62 -4.43,0.01 -8.86,-0.01 -13.28,0.03 0,18.37 0,36.74 0,55.11 -2.46,0 -4.92,0 -7.36,0 0,-18.38 0,-36.76 0,-55.13 -4.67,-0.01 -9.34,-0.01 -14,-0.01 -0.01,-2.21 -0.01,-4.41 0,-6.62 z"
       inkscape:connector-curvature="0"
       style="fill:#1f1a17" />
    <path
       id="path30"
       d="m 966.15,155.5 c 2.61,0.03 5.23,0.04 7.85,0.05 5.98,13.6 12.36,27.04 18.09,40.74 3.51,-6.85 5.87,-14.23 8.85,-21.32 0.36,-0.91 0.74,-1.82 1.12,-2.72 2.39,-5.53 4.65,-11.11 6.83,-16.73 2.57,0.01 5.14,0.01 7.72,0.06 -3.37,8.37 -7.05,16.61 -10.44,24.97 -1.5,3.21 -2.87,6.48 -4.08,9.8 -1.72,3.87 -3.42,7.74 -5.02,11.65 -3.1,5.82 -4.16,14.27 -11.34,16.55 -4.2,0.69 -8.92,0.78 -12.67,-1.55 -2.27,-1.78 -4.15,-4 -6.23,-5.98 1.53,-1.47 3.06,-3.01 5.01,-3.95 2.13,1.69 4.33,3.3 6.24,5.25 1.89,0.03 3.8,0.04 5.71,0.05 1.18,-1.25 2.38,-2.47 3.61,-3.68 2.04,-4.69 -1.5,-8.89 -3.25,-13.05 -5.8,-13.47 -12.21,-26.67 -18,-40.14 z"
       inkscape:connector-curvature="0"
       style="fill:#1f1a17" />
    <path
       id="path32"
       d="m 1018.76,155.54 c 11.55,0 23.09,0 34.64,0 -0.01,2.21 -0.01,4.41 0,6.62 -4.67,0 -9.34,0 -14,0.01 0,18.37 0,36.75 0,55.13 -2.22,0 -4.44,0 -6.64,0 0,-18.38 0,-36.76 0,-55.13 -4.67,-0.01 -9.34,-0.01 -14,-0.01 -0.01,-2.21 -0.01,-4.41 0,-6.62 z"
       inkscape:connector-curvature="0"
       style="fill:#1f1a17" />
    <path
       id="path36"
       d="m 693.11,257.87 c 0.64,0.9 1.3,1.82 1.96,2.74 1.46,14.91 4.18,29.68 6.03,44.56 0.94,4.97 1.33,10.04 2.32,15.01 -2.48,0 -4.94,-0.01 -7.4,-0.01 -1.24,-14.23 -3.67,-28.33 -5.45,-42.51 -2.84,5.03 -5.3,10.26 -7.55,15.58 -3.81,7.75 -7.78,15.43 -11.55,23.21 -1,1.87 -1.97,4.68 -4.68,3.74 -1.92,-2.96 -2.87,-6.39 -4.43,-9.52 -5.45,-11.03 -11.07,-21.96 -16.45,-33.01 -2.74,14.05 -3.88,28.38 -6.19,42.52 -2.16,-0.01 -4.32,-0.01 -6.47,-0.01 0.1,-4.43 0.91,-8.8 1.56,-13.17 2.34,-16.3 4.67,-32.61 7,-48.91 2.17,0 2.7,2.28 3.61,3.75 7.47,15.5 15.66,30.67 22.85,46.3 8.35,-16.73 15.96,-33.81 24.84,-50.27 z"
       inkscape:connector-curvature="0"
       style="fill:#e77817" />
    <path
       id="path38"
       transform="scale(0.8,0.8)"
       d="m 929.78125,322.65625 c -2.8375,7.9375 -7.45625,15.04375 -10.46875,22.90625 -8.975,18.075 -17.075,36.575 -26.125,54.625 3.4375,0.025 6.8625,0.05 10.3125,0.0625 3.8625,-8.225 7.1,-16.8875 12,-24.5625 10.75,-0.4875 21.51875,0 32.28125,-0.1875 3.1625,8.6125 7.7,16.6125 11.875,24.75 2.9875,-0.0125 5.975,-0.0312 9,-0.0312 C 960.73125,381.96875 951.85,364.15 943.6875,346 c -3.925,-7.075 -6.2875,-14.8875 -10.5,-21.8125 -0.675,-1.2 -2.31875,-1.03125 -3.40625,-1.53125 z m 1.53125,18.625 c 4.025,8.5875 8.48125,16.96875 12.15625,25.71875 -8.2125,0.35 -16.425,0.33125 -24.625,0.0312 4.6625,-8.3375 7.83125,-17.3875 12.46875,-25.75 z"
       style="fill:#e77817"
       inkscape:connector-curvature="0" />
    <path
       id="path40"
       d="m 779.91,258.44 c 11.54,-0.02 23.08,-0.01 34.62,-0.01 0,2.19 -0.01,4.39 0,6.59 -4.67,0.07 -9.34,0.06 -14,0.05 0.02,18.35 -0.04,36.71 0.04,55.06 -2.24,0.02 -4.46,0.04 -6.67,0.06 -0.01,-18.37 -0.01,-36.75 -0.01,-55.13 -4.67,0.03 -9.35,0.06 -14.01,-0.14 0,-2.17 0.01,-4.32 0.03,-6.48 z"
       inkscape:connector-curvature="0"
       style="fill:#e77817" />
    <path
       id="path42"
       d="m 828.53,258.43 c 12.07,-0.01 24.14,0 36.21,0 0,2.17 0,4.34 0.01,6.52 -9.62,0.27 -19.24,0.02 -28.86,0.12 0.01,6.03 0,12.05 0.01,18.07 9.61,0.02 19.23,0 28.85,0.01 -0.01,2.45 -0.01,4.91 -0.01,7.36 -9.61,0.01 -19.23,-0.01 -28.84,0.02 0,7.66 -0.02,15.33 0.01,23.01 9.61,0.02 19.23,-0.01 28.84,0.01 -0.01,2.21 -0.01,4.42 -0.01,6.63 -12.07,-0.01 -24.14,0 -36.2,-0.01 -0.01,-20.58 0,-41.16 -0.01,-61.74 z"
       inkscape:connector-curvature="0"
       style="fill:#e77817" />
    <path
       id="path44"
       d="m 932.98,271.87 c 2.65,-4.61 4.24,-9.88 7.71,-13.98 0.36,0.46 1.07,1.39 1.43,1.85 2.36,20.19 5.51,40.3 8.48,60.41 -2.35,0.02 -4.68,0.04 -7,0.06 -2.06,-14.19 -3.71,-28.45 -6.05,-42.6 -4.84,11.48 -11.04,22.35 -16.41,33.59 -1.93,3.29 -2.78,7.56 -6.26,9.64 -7.82,-14.12 -14.63,-28.8 -21.91,-43.21 -2.54,14.11 -3.66,28.44 -6.17,42.56 -2.18,-0.01 -4.36,-0.02 -6.52,-0.02 0.87,-7.12 1.9,-14.22 2.85,-21.33 1.92,-13.57 4.15,-27.12 5.7,-40.74 2.42,0.04 2.91,2.7 3.95,4.34 7.37,15.3 15.45,30.26 22.55,45.69 5.81,-12.13 12.3,-23.92 17.65,-36.26 z"
       inkscape:connector-curvature="0"
       style="fill:#e77817" />
    <path
       id="path46"
       transform="scale(0.8,0.8)"
       d="m 1238.125,322.75 c -2.9,5.6875 -5.9,11.325 -8.3125,17.25 -9.4625,20.0625 -19.2813,40 -28.3437,60.25 3.25,-0.0125 6.5249,-0.05 9.8124,-0.0625 4.3625,-7.9625 7.0126,-16.80625 11.9376,-24.46875 10.7625,-0.5875 21.5562,0.0188 32.3437,-0.28125 3.7125,8.375 7.4875,16.7375 11.8125,24.8125 3.1875,-0.0125 6.4,-0.0375 9.625,-0.0625 -12.525,-25.475 -23.725,-51.575 -36.4375,-76.9375 -0.6,-0.125 -1.825,-0.375 -2.4375,-0.5 z m 1,18.46875 c 4.725,8.45 7.9313,17.65625 12.8438,26.03125 -8.4626,-0.175 -16.9063,0.2125 -25.3438,-0.25 4.7875,-8.2875 8.125,-17.28125 12.5,-25.78125 z"
       style="fill:#e77817"
       inkscape:connector-curvature="0" />
    <path
       id="path48"
       d="m 1025.39,258.43 c 11.51,0 23.02,0 34.53,0 -0.02,2.21 -0.04,4.43 -0.05,6.65 -4.66,-0.03 -9.31,-0.04 -13.96,0.02 0,18.36 0,36.72 0,55.08 -2.18,-0.01 -4.35,-0.01 -6.51,-0.01 0,-18.37 0,-36.75 0,-55.12 -4.66,0.01 -9.32,0 -13.97,0.03 -0.03,-2.22 -0.04,-4.43 -0.04,-6.65 z"
       inkscape:connector-curvature="0"
       style="fill:#e77817" />
    <path
       id="path50"
       d="m 1169.9,258.46 c 3.31,-0.05 6.62,-0.05 9.94,0.06 -6.86,5.22 -12.3,11.98 -19.04,17.32 -3.75,3.32 -6.79,7.4 -10.96,10.23 1.34,1.35 2.69,2.72 3.88,4.24 3.88,5.05 9.09,8.89 13.06,13.87 4.37,5.74 10.49,9.92 14.5,15.98 -2.98,0.02 -5.95,0.02 -8.91,0.03 -3.81,-4.04 -8.11,-7.63 -11.49,-12.06 -4.47,-5.49 -10.4,-9.67 -14.35,-15.6 -0.16,9.21 -0.03,18.43 -0.07,27.65 -2.47,-0.01 -4.92,-0.01 -7.36,0 -0.01,-20.58 0,-41.17 0,-61.75 2.44,0 4.89,0 7.35,0 0.02,7.23 -0.04,14.46 0.05,21.7 3.8,-3.76 8.18,-6.88 11.76,-10.87 3.53,-3.97 7.85,-7.1 11.64,-10.8 z"
       inkscape:connector-curvature="0"
       style="fill:#e77817" />
    <path
       id="path52"
       d="m 1194.25,258.43 c 2.44,0 4.9,0 7.36,0 0.08,15.51 -0.15,31.02 0.12,46.53 13.41,-15.4 26.52,-31.06 39.75,-46.61 0.53,0.03 1.6,0.08 2.13,0.11 0.02,20.56 -0.02,41.13 0.02,61.69 -2.47,0.02 -4.93,0.03 -7.37,0.04 -0.04,-15.25 0.05,-30.51 -0.05,-45.76 -12.64,15.29 -25.88,30.07 -38.7,45.19 -1.07,0.35 -2.14,0.64 -3.22,0.87 -0.09,-20.68 -0.02,-41.37 -0.04,-62.06 z"
       inkscape:connector-curvature="0"
       style="fill:#e77817" />
    <path
       id="path54"
       d="m 1072.4,320.51 c -0.1,-20.69 -0.03,-41.39 -0.04,-62.09 2.43,0.01 4.89,0.01 7.34,0.02 0.07,15.51 -0.14,31.03 0.11,46.54 13.27,-15.11 26.04,-30.68 39.23,-45.85 0.64,-0.29 1.91,-0.87 2.55,-1.16 0.26,20.73 0.04,41.47 0.11,62.21 -2.47,-0.01 -4.93,-0.02 -7.37,-0.04 0.02,-15.2 0.08,-30.41 -0.04,-45.61 -12.36,14.89 -25.31,29.26 -37.75,44.08 -0.88,1.45 -2.72,1.48 -4.14,1.9 z"
       inkscape:connector-curvature="0"
       style="fill:#e77817" />
    <path
       id="path60"
       d="m 89.02,296.97 c 4.14,-4.98 10.39,-8.78 17.06,-8.2 7.2,0.23 13.11,5.35 16.96,11.06 8.72,13.26 13.57,28.5 18.52,43.45 3.81,12.36 7.68,24.7 11.09,37.18 4.91,17.24 10.21,34.36 14.99,51.63 1.92,7.15 4.13,14.25 7.01,21.08 7.24,19.69 14.47,39.6 25.52,57.54 5.56,8.59 11.97,17.77 21.94,21.51 8.69,1.84 16.58,-3.85 22.67,-9.36 8.97,-9.15 15.5,-20.3 21.57,-31.48 15.87,-32.04 26.82,-66.22 36.51,-100.55 3.38,-11.62 6.56,-23.31 9.51,-35.05 5.43,0.78 10.86,1.61 16.35,1.82 -0.14,-1.65 -0.27,-3.3 -0.41,-4.94 0.35,1.56 0.71,3.13 1.15,4.68 0.85,-0.01 2.56,-0.04 3.42,-0.05 -2.09,8.95 -4.55,17.81 -6.91,26.69 -10.48,37.67 -21.85,75.31 -38.58,110.76 -7.37,14.82 -15.7,29.44 -27.16,41.52 -9.43,9.76 -22.35,16.93 -36.23,16.58 -11.79,-0.41 -22.02,-7.78 -29.8,-16.11 -10.67,-12.58 -19.05,-27.06 -25.22,-42.33 -2.32,-7.02 -5.25,-13.82 -8.22,-20.58 -17.11,-44.76 -27.27,-91.78 -42.82,-137.06 -3.55,-9.28 -6.78,-18.93 -12.93,-26.88 -1.92,2.58 -3.79,5.23 -5.1,8.18 -5.24,11.73 -8.86,24.1 -12.32,36.44 -5.16,19.7 -9.45,39.61 -13.42,59.57 C 64.16,465.8 56.14,517.88 48.48,570 c -5.51,38.53 -10.99,77.06 -15.8,115.69 -0.67,1 -1.3,2.03 -1.9,3.1 -6.4,0.02 -12.8,0.03 -19.21,0.02 12.8,-93.72 25.19,-187.57 43.03,-280.49 6.49,-31.48 12.84,-63.2 24.35,-93.31 2.73,-6.33 5.85,-12.57 10.07,-18.04 z"
       inkscape:connector-curvature="0"
       style="fill:#e77844" />
    <path
       id="path64"
       d="m 641.73,360.58 c 0.45,-0.08 1.35,-0.23 1.8,-0.3 8.25,16.63 16.85,33.09 24.76,49.87 8.34,-16.72 15.96,-33.78 24.81,-50.25 0.65,0.91 1.31,1.82 1.97,2.73 2.26,19.92 5.43,39.76 8.35,59.59 -2.48,0 -4.94,0 -7.4,0 -1.22,-14.22 -3.7,-28.31 -5.44,-42.47 -4.63,7.97 -7.75,16.68 -12.16,24.77 -3.19,5.84 -5.55,12.16 -9.24,17.7 -0.59,0 -1.78,0 -2.37,0 -1.84,-2.73 -2.74,-5.94 -4.16,-8.87 -5.46,-11.24 -11.29,-22.29 -16.65,-33.58 -0.34,0.99 -0.67,1.97 -1,2.97 -1.48,13.2 -3.4,26.34 -5.29,39.49 -2.15,-0.01 -4.31,-0.02 -6.46,-0.01 0.1,-4.43 0.9,-8.79 1.55,-13.16 2.32,-16.16 4.66,-32.32 6.93,-48.48 z"
       inkscape:connector-curvature="0"
       style="fill:#e77817" />
    <path
       id="path66"
       d="m 719.09,360.47 c 11.78,0.01 23.56,0 35.34,0.01 -0.01,2.2 -0.01,4.41 -0.01,6.62 -9.62,0.01 -19.23,0 -28.84,0.01 -0.01,6.02 -0.01,12.05 0,18.08 9.61,0.01 19.23,0 28.84,0 0,2.45 0,4.9 0.01,7.36 -9.62,0.01 -19.24,0 -28.85,0.01 -0.01,7.67 0,15.35 0,23.03 9.61,0.01 19.23,-0.01 28.85,0 -0.01,2.21 -0.01,4.42 0,6.63 -11.8,0.01 -23.6,0 -35.4,0.01 0.09,-20.59 -0.08,-41.18 0.06,-61.76 z"
       inkscape:connector-curvature="0"
       style="fill:#e77817" />
    <path
       id="path68"
       d="m 768.24,360.49 c 2.76,-0.01 5.52,-0.02 8.29,-0.06 4.98,7.69 9.67,15.57 14.44,23.39 4.59,-7.84 9.68,-15.39 14.11,-23.33 2.71,-0.03 5.43,-0.02 8.15,0.04 -5.35,10.07 -11.83,19.5 -17.66,29.3 l -0.01,1.33 c 6.48,10.29 12.76,20.71 19.19,31.04 -2.71,0.01 -5.41,0.02 -8.1,0.06 -5.47,-8.19 -10.69,-16.56 -15.69,-25.04 -5.15,8.38 -10.33,16.75 -15.64,25.03 -2.71,-0.02 -5.4,-0.04 -8.09,-0.08 6.18,-10.51 12.78,-20.77 19.17,-31.14 0.16,-1.46 -0.99,-2.52 -1.56,-3.72 -5.7,-8.84 -10.9,-17.98 -16.6,-26.82 z"
       inkscape:connector-curvature="0"
       style="fill:#e77817" />
    <path
       id="path70"
       d="m 896.88,360.47 c 2.48,0 4.97,0 7.46,0.01 0,8.48 0,16.95 0,25.43 10.14,0.01 20.27,0.01 30.41,0 0,-8.47 0,-16.95 0,-25.43 2.21,-0.01 4.42,-0.01 6.64,-0.01 0,20.59 0,41.17 0,61.75 -2.22,0 -4.43,0 -6.63,0 -0.02,-9.89 0,-19.78 -0.01,-29.67 -10.14,0 -20.27,0.01 -30.4,0 -0.02,9.89 -0.01,19.78 -0.01,29.67 -2.5,0 -4.99,0 -7.48,0 0,-20.58 -0.02,-41.17 0.02,-61.75 z"
       inkscape:connector-curvature="0"
       style="fill:#e77817" />
    <path
       id="path72"
       d="m 1004.65,360.41 c 0.87,0.04 1.75,0.07 2.65,0.11 -0.01,20.57 0,41.13 -0.01,61.7 -2.5,0 -4.99,0 -7.47,0 -0.05,-15.24 0.09,-30.49 -0.08,-45.73 -12.28,14.16 -24.6,28.3 -36.72,42.6 -1.36,1.66 -3.11,2.92 -5.15,3.57 -0.13,-20.73 -0.03,-41.46 -0.06,-62.18 2.2,-0.01 4.41,-0.01 6.63,-0.01 0.06,15.79 -0.11,31.57 0.09,47.35 13.16,-15.98 26.91,-31.47 40.12,-47.41 z"
       inkscape:connector-curvature="0"
       style="fill:#e77817" />
    <path
       id="path74"
       d="m 1056.3,360.45 c 3.25,0.01 6.51,0.02 9.77,0.09 -3.45,3.37 -6.64,7.03 -10.38,10.08 -5.46,4.2 -9.55,9.89 -15.15,13.93 -1.21,1.29 -3.43,2.37 -3.56,4.21 3.87,4.56 8.7,8.25 12.39,12.99 3.73,4.82 8.73,8.49 12.5,13.3 2.02,2.57 4.36,4.85 6.72,7.12 -3.25,0.02 -6.5,0.24 -9.72,-0.08 -2.24,-2.12 -3.96,-4.72 -6.22,-6.81 -7.03,-6.48 -12.73,-14.19 -19.84,-20.58 -0.1,9.17 -0.03,18.35 -0.05,27.52 -2.18,0 -4.36,0 -6.52,0 0,-20.58 -0.01,-41.17 0,-61.75 2.16,0 4.34,0 6.52,0.01 0.03,7.52 -0.07,15.04 0.07,22.56 3.63,-3.45 6.93,-7.28 10.96,-10.3 4.41,-3.85 8.31,-8.22 12.51,-12.29 z"
       inkscape:connector-curvature="0"
       style="fill:#e77817" />
    <path
       id="path76"
       d="m 1081.41,360.47 c 2.44,0 4.89,0 7.35,0 0.04,15.47 -0.08,30.95 0.06,46.42 12.2,-14.49 24.6,-28.8 36.75,-43.32 1.32,-1.66 3.08,-2.87 5.11,-3.53 0.21,20.72 0.03,41.45 0.09,62.18 -2.46,0 -4.92,0 -7.35,0.01 -0.08,-15.24 0.09,-30.47 -0.09,-45.71 -9.85,10.7 -18.74,22.28 -28.69,32.88 l -0.27,1.05 c -3.86,3.44 -6.53,8.01 -10.43,11.38 -0.62,0.19 -1.86,0.56 -2.49,0.74 -0.11,-20.7 -0.01,-41.4 -0.04,-62.1 z"
       inkscape:connector-curvature="0"
       style="fill:#e77817" />
    <path
       id="path78"
       transform="scale(0.8,0.8)"
       d="m 1068.7188,450.53125 c -0.9125,0.1125 -2.7438,0.325 -3.6563,0.4375 -3.0875,6.9625 -5.9625,14.05 -9.625,20.75 -8.6,18.7625 -17.5625,37.3375 -26.375,56 3.2125,0.0375 6.45,0.05 9.6875,0.0625 4.0625,-8.2 8.3375,-16.28125 11.75,-24.78125 10.8,0.1625 21.625,0.025 32.4375,0.0625 4.425,8.0125 8.0687,16.38125 11.8437,24.71875 3.2875,-0.0125 6.5938,-0.0125 9.9063,0 -12.025,-25.7375 -24.2187,-51.3875 -35.9687,-77.25 z m -1.5313,18.09375 c 3.9125,8.75 8.125,17.375 12.0625,26.125 -8.1125,0.0125 -16.2125,0.1125 -24.3125,-0.0625 3.2625,-9.0625 8.3625,-17.275 12.25,-26.0625 z"
       style="fill:#e77817"
       inkscape:connector-curvature="0" />
    <path
       transform="scale(0.8,0.8)"
       id="path82"
       d="m 893.0625,575.96875 c -7.07138,0.17979 -14.08438,1.96562 -20.1875,5.59375 C 854.3625,592.1 847.8,618.28125 858,636.71875 c 6,10.825 17.1,18.96875 29.5,20.46875 7.7125,0.25 15.8875,1.01875 23,-2.65625 7.05,-2.325 12.13125,-7.81875 16.96875,-13.15625 5.425,-7 7.79375,-15.8625 7.71875,-24.625 0.7375,-16.625 -10.55625,-32.46875 -25.90625,-38.34375 -5.17891,-1.75 -10.71879,-2.57734 -16.21875,-2.4375 z m 1.34375,8.34375 c 8.69446,0.20696 17.13906,4.47969 23.40625,10.375 5.075,5.9875 8.1625,13.6875 8.8125,21.5 -0.3125,7.975 -2.6375,16.2375 -8.3125,22.125 -6.65,7.7125 -17.0625,11.5375 -27.125,10.875 -13.575,-1.1875 -25.45625,-11.85 -28.28125,-25.125 -0.525,-7.7125 -0.81875,-15.925 3.28125,-22.8125 5.2,-8.8 14.30625,-15.1875 24.46875,-16.75 1.24688,-0.14375 2.50793,-0.21707 3.75,-0.1875 z"
       style="fill:#e77817"
       inkscape:connector-curvature="0" />
    <path
       id="path84"
       transform="scale(0.8,0.8)"
       d="m 1266.1875,575.96875 c -5.4719,0.0741 -10.9023,1.05313 -16,3.21875 -9.8875,4.4375 -18.5625,12.5625 -21.8125,23.125 -0.8125,3.275 -1.7062,6.55 -2.5938,9.8125 -3.9749,-0.05 -7.9437,-0.075 -11.9062,-0.0625 -0.013,-11.3 0,-22.60625 0,-33.90625 -3.1375,-0.0125 -6.2625,-0.0125 -9.375,0 l 0,77.1875 c 3.1125,-0.0125 6.2188,0 9.3438,0 0.012,-11.6625 0.019,-23.31875 0.031,-34.96875 3.9875,0 7.9562,0.006 11.9688,-0.0312 1.0874,6.8625 2.5875,13.89375 6.8124,19.59375 7.4251,10.8 20.1938,18.275 33.5313,17.4375 16.6875,1.65 32.5375,-9.9125 38.875,-24.9375 3.45,-7.0625 2.175,-15.1125 2.25,-22.6875 -2.1125,-15.15 -13.8875,-28.0625 -28.4375,-32.4375 -4.1617,-0.91328 -8.4316,-1.40141 -12.6875,-1.34375 z m -0.625,8.3125 c 7.9112,-0.33813 15.7727,3.00078 21.9375,7.90625 13.0125,10.625 15.5625,31.8375 4.625,44.8125 -7.6125,9.5375 -20.7938,14.4875 -32.7188,11.4375 -8.3374,-2.1875 -16.1312,-7.53125 -20.1562,-15.28125 -6.45,-10.65 -5.5437,-25.1 1.5938,-35.1875 5.1124,-5.925 11.35,-11.29375 19.25,-12.84375 1.807,-0.49219 3.643,-0.76572 5.4687,-0.84375 z"
       style="fill:#e77817"
       inkscape:connector-curvature="0" />
    <path
       id="path86"
       d="m 635.78,462.52 c 2.49,0 4.98,0 7.48,0 0.01,7.24 -0.02,14.48 0.02,21.72 3.89,-4.13 8.66,-7.31 12.43,-11.58 3.34,-3.74 7.34,-6.79 11.06,-10.12 3.06,-0.05 6.13,-0.07 9.2,0.16 -6.09,5.32 -11.38,11.5 -17.71,16.54 -3.98,3.52 -7.19,7.91 -11.74,10.77 5.63,7.16 12.78,12.91 18.42,20.06 4.51,4.6 9.29,8.97 13.1,14.2 -2.96,0 -5.91,0.01 -8.86,0.01 -4.24,-4.55 -9.07,-8.55 -12.87,-13.5 -4.09,-4.97 -9.4,-8.82 -13.19,-14.05 0.31,9.18 0.06,18.36 0.14,27.55 -2.5,-0.01 -4.99,0 -7.47,0 -0.01,-20.59 0,-41.17 -0.01,-61.76 z"
       inkscape:connector-curvature="0"
       style="fill:#e77817" />
    <path
       id="path88"
       transform="scale(0.8,0.8)"
       d="m 1133.4375,578.15625 0,77.1875 c 12.45,-0.5 25.0937,1.18125 37.4063,-1.15625 3.5749,-1.9875 7.7562,-3.575 9.9062,-7.3125 6.475,-10.325 5.1937,-26.675 -6.3438,-32.875 -10.025,-4.0625 -21.0874,-2.76875 -31.625,-2.96875 l 0,-32.875 c -3.125,-0.0125 -6.2312,0 -9.3437,0 z m 18.7813,41.09375 c 5.2518,-0.023 10.4765,0.19531 15.5312,1.78125 8.3375,3.7 10.2687,15.6 4.2188,22.1875 -2.8126,2.675 -6.8313,3.88125 -10.6563,3.84375 -6.175,0.025 -12.3562,-0.05 -18.5313,0 -0.012,-9.25 -0.012,-18.5125 0,-27.75 3.1219,0.0609 6.2865,-0.0487 9.4376,-0.0625 z"
       style="fill:#e77817"
       inkscape:connector-curvature="0" />
    <path
       id="path90"
       d="m 766.15,462.14 c 1.77,0.32 2.69,1.83 3.39,3.35 7.64,15.61 15.65,31.04 23.21,46.69 3.68,-8.34 8.21,-16.28 12.01,-24.57 2.05,-5.08 4.69,-9.9 7.12,-14.81 1.91,-3.78 3.51,-7.76 6.16,-11.11 1.04,2.21 1.47,4.61 1.67,7.04 1.68,12.02 3.64,24 5.32,36.03 0.84,6.5 1.8,12.99 2.8,19.47 -2.26,0.04 -4.52,0.08 -6.77,0.15 -1.41,-6 -1.83,-12.18 -2.69,-18.27 -1.09,-8.44 -2.69,-16.84 -3.21,-25.35 -0.89,2.76 -2.07,5.41 -3.43,7.97 -6.06,11.77 -11.68,23.78 -17.92,35.45 -2.34,1.05 -3.01,-1.58 -3.93,-3.11 -6.34,-12.77 -12.74,-25.51 -19.13,-38.26 -0.34,0.35 -1.03,1.03 -1.38,1.37 -1.16,13.43 -3.44,26.74 -5.21,40.1 -2.22,-0.01 -4.44,-0.01 -6.65,-0.01 2.64,-20.74 6.08,-41.38 8.64,-62.13 z"
       inkscape:connector-curvature="0"
       style="fill:#e77817" />
    <path
       id="path92"
       d="m 843.39,524.28 c -0.01,-20.59 -0.01,-41.18 0,-61.76 15.08,0 30.16,0 45.24,0 0,20.59 0.02,41.18 0,61.77 -2.46,-0.01 -4.9,-0.01 -7.34,-0.01 -0.01,-18.38 0,-36.76 -0.01,-55.13 -10.18,0 -20.36,-0.01 -30.53,0 0,18.37 0,36.75 0,55.13 -2.46,0 -4.92,-0.01 -7.36,0 z"
       inkscape:connector-curvature="0"
       style="fill:#e77817" />
    <path
       id="path94"
       d="m 1055.82,462.52 c 11.54,-0.01 23.09,-0.01 34.63,0 -0.01,2.2 -0.01,4.41 0,6.62 -4.67,0 -9.34,0 -14,0.01 0,18.38 0,36.75 0,55.13 -2.46,-0.01 -4.91,0 -7.35,0 -0.01,-18.37 0,-36.74 -0.01,-55.11 -4.43,-0.04 -8.85,-0.03 -13.27,-0.03 -0.01,-2.21 -0.01,-4.42 0,-6.62 z"
       inkscape:connector-curvature="0"
       style="fill:#e77817" />
    <path
       id="path96"
       d="m 1102.77,462.52 c 12.1,0 24.21,-0.02 36.33,0.01 -0.02,2.2 -0.01,4.4 0,6.61 -9.62,0.02 -19.24,0 -28.86,0.01 0,6.03 0,12.06 0,18.09 9.62,0.01 19.24,-0.03 28.87,0.03 -0.02,2.43 -0.03,4.87 -0.03,7.31 -9.61,0.04 -19.23,0.01 -28.84,0.02 0,7.68 0,15.36 0,23.04 9.62,0 19.24,-0.02 28.86,0.01 -0.02,2.2 -0.01,4.41 0,6.62 -12.12,0.02 -24.23,0.01 -36.33,0.01 -0.01,-20.59 -0.01,-41.17 0,-61.76 z"
       inkscape:connector-curvature="0"
       style="fill:#e77817" />
    <path
       id="path98"
       transform="scale(0.8,0.8)"
       d="m 1470.0938,578.125 c -9.2751,-0.025 -18.55,0.0438 -27.8126,0.0312 -0.012,25.7375 -0.012,51.45 0,77.1875 2.75,-0.0125 5.5063,-0.0125 8.2813,0 0.013,-11.6625 -0.013,-23.30625 0,-34.96875 4.0625,0.0375 8.1813,0.2125 12.2187,-0.4375 5.4501,-1.1 11.2063,0.0625 16.4688,-2.125 5.9875,-2.675 11.4313,-8.35 11.4688,-15.25 -0.1251,-4.6125 0.9062,-9.7375 -1.8438,-13.8125 -3.5,-6.8625 -11.3437,-10.5125 -18.7812,-10.625 z m -7.75,8.21875 c 3.9281,-0.0391 7.8437,0.1125 11.6562,1.15625 5.5875,1.2375 8.4188,7.3375 8.4062,12.625 -1.1874,5.7 -5.9687,11.0375 -12.1562,10.875 -6.5625,1.6375 -13.1125,0.30625 -19.6875,-0.0937 0.013,-8.1625 -0.013,-16.31875 0,-24.46875 3.8875,0.1875 7.8531,-0.0547 11.7813,-0.0937 z"
       style="fill:#e77817"
       inkscape:connector-curvature="0" />
    <path
       id="path100"
       d="m 1204.88,462.52 c 2.2,0 4.4,-0.01 6.63,0 0.01,8.52 -0.02,17.05 0.02,25.57 10.12,0.01 20.24,0 30.36,0.01 0.36,-8.53 -0.66,-17.15 0.64,-25.61 2.28,0.01 4.57,0.02 6.88,0.04 0,20.59 0.01,41.17 0,61.75 -2.51,-0.01 -5,-0.01 -7.49,-0.01 -0.01,-9.89 0,-19.78 0,-29.67 -10.14,0 -20.27,-0.01 -30.4,0 -0.02,9.89 0,19.79 -0.01,29.68 -2.23,-0.01 -4.43,-0.01 -6.63,0 0,-20.59 0,-41.17 0,-61.76 z"
       inkscape:connector-curvature="0"
       style="fill:#e77817" />
    <path
       id="path102"
       transform="scale(0.8,0.8)"
       d="m 1585.4688,578.15625 c -0.013,25.725 -0.013,51.45 0,77.1875 9.8625,-0.0875 19.7312,0.1375 29.5937,-0.0625 5.1625,-0.7375 10.9813,-1.55 14.7187,-5.5625 6.425,-6.1375 7.2938,-16.14375 5.1563,-24.34375 -1.3875,-5.9125 -6.125,-10.575 -11.8125,-12.4375 -9.5875,-2.8875 -19.6812,-1.675 -29.5312,-1.9375 l 0,-32.84375 c -2.7251,-0.0125 -5.4375,-0.0125 -8.125,0 z m 18.6874,41.09375 c 5.9018,-0.0179 11.7813,0.375 17.1563,2.96875 6.35,3.825 6.0875,12.225 4.125,18.5 -2.875,3.0625 -6.3625,5.80625 -10.6875,6.21875 -7.0375,0.3 -14.0875,-0.0187 -21.125,0.0937 -0.025,-9.2375 -0.013,-18.48125 0,-27.71875 3.4547,0.0984 6.9902,-0.0517 10.5312,-0.0625 z"
       style="fill:#e77817"
       inkscape:connector-curvature="0" />
    <path
       id="path104"
       d="m 1315.33,524.28 c -0.02,-20.59 -0.01,-41.18 0,-61.76 2.15,-0.01 4.33,-0.01 6.51,0 0,20.58 0,41.17 0,61.76 -2.18,0 -4.36,-0.01 -6.51,0 z"
       inkscape:connector-curvature="0"
       style="fill:#e77817" />
    <path
       id="path106"
       d="m 1337.43,462.49 c 2.74,0.02 5.49,0.03 8.25,0.02 5.08,7.62 9.8,15.48 14.44,23.38 4.75,-7.87 9.57,-15.71 14.59,-23.41 2.72,0.03 5.45,0.03 8.2,0.02 -6.3,10.07 -12.62,20.15 -18.55,30.44 6.75,10.26 13.18,20.74 19.43,31.31 -2.71,0.02 -5.41,0.03 -8.1,0.06 -5.26,-8.33 -10.53,-16.65 -15.57,-25.12 -4.79,8.54 -10.53,16.51 -15.28,25.07 -2.86,0.02 -5.71,0.02 -8.55,-0.04 6.47,-10.47 12.82,-21.02 19.54,-31.33 -5.78,-10.34 -12.21,-20.31 -18.4,-30.4 z"
       inkscape:connector-curvature="0"
       style="fill:#e77817" />
    <path
       id="path114"
       d="m 160.76,473.82 c 2.97,6.76 5.9,13.56 8.22,20.58 -6.16,61.35 -13.16,122.63 -19.6,183.97 -3.44,-0.38 -6.84,-0.98 -10.3,-1.2 1.53,-17.83 3.65,-35.6 5.56,-53.38 5.3,-50 10.79,-99.99 16.12,-149.97 z"
       inkscape:connector-curvature="0"
       style="fill:#1f1a17" />
    <path
       id="path120"
       d="m 801.71,564.57 c 2.64,-0.01 5.29,-0.02 7.94,-0.02 -7.12,16.59 -13.96,33.3 -21.15,49.86 -1.66,3.78 -2.59,8.2 -5.88,10.98 -4.21,3.86 -10.44,2.63 -15.53,1.67 -0.39,-0.32 -1.17,-0.95 -1.56,-1.27 -2.04,-1.83 -5.39,-3.35 -5.41,-6.47 1.46,-1.33 3.23,-2.23 4.92,-3.23 2,1.92 4.16,3.66 6.37,5.35 2.3,-0.15 4.93,0.35 6.82,-1.33 1.77,-1.53 3.05,-3.8 3.32,-6.12 -7.68,-16.37 -15.12,-32.87 -22.49,-49.39 2.61,-0.03 5.24,-0.03 7.86,0.03 6.17,13.52 12.23,27.1 18.26,40.69 3.13,-6.77 5.63,-13.81 8.48,-20.7 2.58,-6.73 5.77,-13.21 8.05,-20.05 z"
       inkscape:connector-curvature="0"
       style="fill:#e77817" />
    <path
       id="path122"
       d="m 635.79,564.56 c 2.2,0 4.41,-0.01 6.63,0 0,8.52 -0.01,17.03 0,25.55 10.14,0.03 20.28,0.01 30.42,0.01 0.01,-8.52 0,-17.04 0.01,-25.56 2.48,0 4.97,0 7.47,0 0.01,20.59 0.01,41.18 0,61.77 -2.49,-0.01 -4.99,-0.01 -7.47,0 -0.01,-9.9 0,-19.79 -0.01,-29.69 -10.14,0 -20.28,0 -30.42,0 -0.01,9.9 0,19.79 0,29.69 -2.22,-0.01 -4.43,-0.01 -6.63,0 -0.01,-20.59 -0.01,-41.18 0,-61.77 z"
       inkscape:connector-curvature="0"
       style="fill:#e77817" />
    <path
       id="path124"
       transform="scale(0.8,0.8)"
       d="m 899.28125,705.59375 c -12.325,25.7125 -24.35625,51.58125 -36.59375,77.34375 3.2625,-0.025 6.55625,-0.0312 9.84375,-0.0312 4.3125,-8.1 7.64375,-16.675 11.96875,-24.75 10.7625,0.0375 21.51875,0.0562 32.28125,-0.0312 4.35,8.0875 7.59375,16.7125 11.90625,24.8125 3.2125,-0.025 6.41875,-0.0438 9.65625,-0.0937 -6.5,-13.1375 -12.2625,-26.6125 -18.75,-39.75 -5.3875,-12.5875 -11.9625,-24.63125 -17.0625,-37.34375 -0.8125,-0.0375 -2.4375,-0.11875 -3.25,-0.15625 z m 1.40625,18.21875 c 4.5375,8.525 7.7625,17.675 12.5625,26.0625 -8.3875,-0.0375 -16.75,0.0312 -25.125,-0.0312 4.1375,-8.7 8.65,-17.21875 12.5625,-26.03125 z"
       style="fill:#e77817"
       inkscape:connector-curvature="0" />
    <path
       id="path126"
       d="m 824.44,626.33 c -0.01,-20.59 -0.01,-41.18 0,-61.78 2.2,0 4.42,0.01 6.64,0.03 0.01,7.49 -0.02,14.98 0.02,22.48 4.11,-3.9 7.78,-8.28 12.34,-11.69 3.92,-3.38 7.34,-7.28 11.09,-10.85 3.25,0.03 6.51,0.04 9.77,0.1 -5.59,6.33 -12.53,11.21 -18.23,17.43 -3.61,3.62 -7.89,6.5 -11.28,10.36 4.45,4.82 9.23,9.31 13.35,14.44 6.68,6.04 12.08,13.29 18.68,19.41 -3.32,0.06 -6.63,0.07 -9.94,0.1 -5.73,-7.32 -12.99,-13.23 -18.78,-20.48 -2.26,-2.42 -4.68,-4.68 -7,-7.01 -0.05,9.14 -0.01,18.29 -0.02,27.44 -2.22,0.01 -4.44,0.01 -6.64,0.02 z"
       inkscape:connector-curvature="0"
       style="fill:#e77817" />
  </g>
</svg>
