<?xml version="1.0" encoding="UTF-8" standalone="no"?>
<!-- Created with Inkscape (http://www.inkscape.org/) -->
<svg xmlns:dc="http://purl.org/dc/elements/1.1/" xmlns:cc="http://creativecommons.org/ns#" xmlns:rdf="http://www.w3.org/1999/02/22-rdf-syntax-ns#" xmlns:svg="http://www.w3.org/2000/svg" xmlns="http://www.w3.org/2000/svg" xmlns:xlink="http://www.w3.org/1999/xlink" xmlns:sodipodi="http://sodipodi.sourceforge.net/DTD/sodipodi-0.dtd" xmlns:inkscape="http://www.inkscape.org/namespaces/inkscape" id="svg2" version="1.1" inkscape:version="0.48.4 r9939" width="2500" height="685" sodipodi:docname="logo_aeroflot.png">
  <metadata id="metadata8">
    <rdf:RDF>
      <cc:Work rdf:about="">
        <dc:format>image/svg+xml</dc:format>
        <dc:type rdf:resource="http://purl.org/dc/dcmitype/StillImage"/>
        <dc:title/>
      </cc:Work>
    </rdf:RDF>
  </metadata>
  <defs id="defs6">
    <linearGradient id="SVGID_3_" gradientUnits="userSpaceOnUse" x1="-84.539597" y1="768.92383" x2="-72.551003" y2="768.92383" gradientTransform="matrix(4.1902,3.9074,3.9074,-4.1902,-2009.6055,3752.252)">
      <stop offset="0" style="stop-color:#C02026" id="stop74"/>
      <stop offset="0.0464" style="stop-color:#C52026" id="stop76"/>
      <stop offset="0.3" style="stop-color:#E21F26" id="stop78"/>
      <stop offset="0.3919" style="stop-color:#EA705E" id="stop80"/>
      <stop offset="0.5" style="stop-color:#F4B4B3" id="stop82"/>
      <stop offset="0.6184" style="stop-color:#EA705E" id="stop84"/>
      <stop offset="0.7191" style="stop-color:#E21F26" id="stop86"/>
      <stop offset="0.9566" style="stop-color:#C52026" id="stop88"/>
      <stop offset="1" style="stop-color:#C02026" id="stop90"/>
    </linearGradient>
    <clipPath id="SVGID_2_">
      <use height="1052.3622" width="744.09448" y="0" x="0" style="overflow:visible" xlink:href="#SVGID_1_" overflow="visible" id="use71"/>
    </clipPath>
    <linearGradient id="SVGID_6_" gradientUnits="userSpaceOnUse" x1="-111.6519" y1="745.4043" x2="-99.778702" y2="745.4043" gradientTransform="matrix(7.0873,4.9626,4.9626,-7.0873,-2266.7031,6016.6758)">
      <stop offset="0" style="stop-color:#FFFFFF" id="stop103"/>
      <stop offset="0.3427" style="stop-color:#FFFFFF" id="stop105"/>
      <stop offset="0.55" style="stop-color:#FFFFFF" id="stop107"/>
      <stop offset="0.9101" style="stop-color:#D4DBEC" id="stop109"/>
      <stop offset="1" style="stop-color:#D4DBEC" id="stop111"/>
    </linearGradient>
    <clipPath id="SVGID_5_">
      <use height="1052.3622" width="744.09448" y="0" x="0" style="overflow:visible" xlink:href="#SVGID_4_" overflow="visible" id="use100"/>
    </clipPath>
    <linearGradient id="SVGID_9_" gradientUnits="userSpaceOnUse" x1="-24.271999" y1="803.37109" x2="-12.2804" y2="803.37109" gradientTransform="matrix(2.5449,2.3732,2.3732,-2.5449,-1190.0859,2304.2031)">
      <stop offset="0" style="stop-color:#0A4E92" id="stop124"/>
      <stop offset="0.1067" style="stop-color:#0A4E92" id="stop126"/>
      <stop offset="0.1941" style="stop-color:#2D5A9B" id="stop128"/>
      <stop offset="0.3786" style="stop-color:#657DB4" id="stop130"/>
      <stop offset="0.5" style="stop-color:#889DCB" id="stop132"/>
      <stop offset="0.5146" style="stop-color:#8399C8" id="stop134"/>
      <stop offset="0.6651" style="stop-color:#5974AD" id="stop136"/>
      <stop offset="0.7949" style="stop-color:#355F9E" id="stop138"/>
      <stop offset="0.8977" style="stop-color:#185295" id="stop140"/>
      <stop offset="0.9607" style="stop-color:#0A4E92" id="stop142"/>
      <stop offset="1" style="stop-color:#0A4E92" id="stop144"/>
    </linearGradient>
    <clipPath id="SVGID_8_">
      <use height="1052.3622" width="744.09448" y="0" x="0" style="overflow:visible" xlink:href="#SVGID_7_" overflow="visible" id="use121"/>
    </clipPath>
    <linearGradient id="SVGID_12_" gradientUnits="userSpaceOnUse" x1="35.913101" y1="792.90332" x2="47.736301" y2="792.90332" gradientTransform="matrix(2.4071,1.5041,1.5041,-2.4071,-582.8906,2051.8301)">
      <stop offset="0" style="stop-color:#C02026" id="stop157"/>
      <stop offset="0.0773" style="stop-color:#C52026" id="stop159"/>
      <stop offset="0.5" style="stop-color:#E21F26" id="stop161"/>
      <stop offset="0.7298" style="stop-color:#EA705E" id="stop163"/>
      <stop offset="1" style="stop-color:#F4B4B3" id="stop165"/>
    </linearGradient>
    <clipPath id="SVGID_11_">
      <use height="1052.3622" width="744.09448" y="0" x="0" style="overflow:visible" xlink:href="#SVGID_10_" overflow="visible" id="use154"/>
    </clipPath>
    <linearGradient id="SVGID_15_" gradientUnits="userSpaceOnUse" x1="-71.567902" y1="778.51367" x2="-59.657299" y2="778.51367" gradientTransform="matrix(4.3638,3.4217,3.4217,-4.3638,-1621.5039,3787.8457)">
      <stop offset="0" style="stop-color:#D5DEEF" id="stop178"/>
      <stop offset="0.073" style="stop-color:#D5DEEF" id="stop180"/>
      <stop offset="0.2236" style="stop-color:#7687B8" id="stop182"/>
      <stop offset="0.3708" style="stop-color:#0A4E92" id="stop184"/>
      <stop offset="0.4289" style="stop-color:#155194" id="stop186"/>
      <stop offset="0.5101" style="stop-color:#2D5A99" id="stop188"/>
      <stop offset="0.6049" style="stop-color:#4A68A3" id="stop190"/>
      <stop offset="0.71" style="stop-color:#6C7FB2" id="stop192"/>
      <stop offset="0.8237" style="stop-color:#95A3CA" id="stop194"/>
      <stop offset="0.9427" style="stop-color:#D1DAEC" id="stop196"/>
      <stop offset="0.9494" style="stop-color:#D5DEEF" id="stop198"/>
      <stop offset="1" style="stop-color:#D5DEEF" id="stop200"/>
    </linearGradient>
    <clipPath id="SVGID_14_">
      <use height="1052.3622" width="744.09448" y="0" x="0" style="overflow:visible" xlink:href="#SVGID_13_" overflow="visible" id="use175"/>
    </clipPath>
    <linearGradient id="SVGID_18_" gradientUnits="userSpaceOnUse" x1="-73.518097" y1="780.98633" x2="-61.608002" y2="780.98633" gradientTransform="matrix(4.4416,3.4827,3.4827,-4.4416,-1650.793,3852.834)">
      <stop offset="0" style="stop-color:#FFFFFF" id="stop213"/>
      <stop offset="0.1742" style="stop-color:#FFFFFF" id="stop215"/>
      <stop offset="0.2487" style="stop-color:#F6F7FB" id="stop217"/>
      <stop offset="0.3471" style="stop-color:#E4E8F4" id="stop219"/>
      <stop offset="0.3539" style="stop-color:#E3E7F3" id="stop221"/>
      <stop offset="0.405" style="stop-color:#E9ECF6" id="stop223"/>
      <stop offset="0.5599" style="stop-color:#F8F8FC" id="stop225"/>
      <stop offset="0.7" style="stop-color:#FFFFFF" id="stop227"/>
      <stop offset="1" style="stop-color:#FFFFFF" id="stop229"/>
    </linearGradient>
    <clipPath id="SVGID_17_">
      <use height="1052.3622" width="744.09448" y="0" x="0" style="overflow:visible" xlink:href="#SVGID_16_" overflow="visible" id="use210"/>
    </clipPath>
    <linearGradient id="SVGID_21_" gradientUnits="userSpaceOnUse" x1="-65.620598" y1="777.35553" x2="-53.7085" y2="777.35553" gradientTransform="matrix(4.1368,3.2437,3.2437,-4.1368,-1533.8633,3595.3926)">
      <stop offset="0" style="stop-color:#F4B4B3" id="stop242"/>
      <stop offset="0.0562" style="stop-color:#F4B4B3" id="stop244"/>
      <stop offset="0.0962" style="stop-color:#F4B1AF" id="stop246"/>
      <stop offset="0.14" style="stop-color:#F3A8A4" id="stop248"/>
      <stop offset="0.1856" style="stop-color:#F09A91" id="stop250"/>
      <stop offset="0.2324" style="stop-color:#EE8879" id="stop252"/>
      <stop offset="0.2802" style="stop-color:#EA705E" id="stop254"/>
      <stop offset="0.328" style="stop-color:#E64F3E" id="stop256"/>
      <stop offset="0.3708" style="stop-color:#E21F26" id="stop258"/>
      <stop offset="0.3867" style="stop-color:#DD1F26" id="stop260"/>
      <stop offset="0.5169" style="stop-color:#C02026" id="stop262"/>
      <stop offset="0.7221" style="stop-color:#DD1F26" id="stop264"/>
      <stop offset="0.7472" style="stop-color:#E21F26" id="stop266"/>
      <stop offset="0.7726" style="stop-color:#E43D32" id="stop268"/>
      <stop offset="0.8652" style="stop-color:#EC8070" id="stop270"/>
      <stop offset="0.9299" style="stop-color:#F2A49F" id="stop272"/>
      <stop offset="0.9607" style="stop-color:#F4B4B3" id="stop274"/>
      <stop offset="1" style="stop-color:#F4B4B3" id="stop276"/>
    </linearGradient>
    <clipPath id="SVGID_20_">
      <use height="1052.3622" width="744.09448" y="0" x="0" style="overflow:visible" xlink:href="#SVGID_19_" overflow="visible" id="use239"/>
    </clipPath>
  </defs>
  <sodipodi:namedview pagecolor="#ffffff" bordercolor="#666666" borderopacity="1" objecttolerance="10" gridtolerance="10" guidetolerance="10" inkscape:pageopacity="0" inkscape:pageshadow="2" inkscape:window-width="1600" inkscape:window-height="838" id="namedview4" showgrid="false" inkscape:zoom="0.10606602" inkscape:cx="2854.5322" inkscape:cy="379.6831" inkscape:window-x="-8" inkscape:window-y="-8" inkscape:window-maximized="1" inkscape:current-layer="svg2"/>
  <g transform="matrix(3.3537858,0,0,3.3531081,-211.71027,-419.75194)" id="g3">
    <path style="fill:#ea7624" inkscape:connector-curvature="0" d="m 317.976,310.242 c 12.483,2.091 36.399,5.306 65.585,5.962 29.167,0.784 63.567,-1.058 95.895,-6.071 32.449,-4.954 62.887,-13.146 84.366,-22.136 21.771,-8.515 33.944,-18.969 33.896,-19.042 0.14,0.073 -12.508,12.149 -35.562,22.555 -22.828,10.751 -55.016,21.047 -88.839,27.72 -33.877,6.844 -69.401,9.956 -98.247,10.169 -28.912,0.334 -51.327,-2.413 -59.234,-3.623 -27.095,-4.297 -46.877,-11.772 -58.912,-18.944 -12.247,-7.257 -16.197,-13.814 -14.976,-15.121 1.294,-1.495 7.409,1.592 19.643,5.524 12.333,4.018 30.967,9.099 56.385,13.007" id="path5"/>
    <polygon style="fill:#0e4d92" points="508.902,218.589 481.406,168.502 463.531,168.502 438.765,218.589 447.937,218.589 466.655,179.813 466.996,179.813 487.618,218.589 " id="polygon7"/>
    <path style="fill:#0e4d92" inkscape:connector-curvature="0" d="m 154.356,196.758 29.301,-0.407 c -0.334,7.014 -4.09,10.977 -6.071,12.581 -4.869,3.896 -11.736,4.254 -15.037,4.254 -4.893,0 -9.086,-0.717 -13.341,-3.331 -2.717,-1.556 -5.829,-4.425 -7.396,-6.71 l -1.368,-2.127 -9.511,5.622 c 2.753,3.336 7.171,6.612 11.736,8.977 7.099,3.574 13.62,4.479 21.485,4.479 8.406,0 21.509,-1.246 30.984,-8.503 6.57,-4.953 9.573,-11.888 9.573,-18.008 0,-6.047 -3.002,-13.073 -9.573,-18.027 -8.193,-6.235 -20.117,-8.503 -30.759,-8.503 -6.832,0 -13.183,0.724 -19.619,3.215 -5.349,1.878 -9.53,4.564 -13.827,8.327 l 9.511,5.488 2.376,-2.517 c 1.817,-2.151 5.039,-4.23 7.944,-5.373 3.853,-1.793 7.925,-2.292 12.107,-2.292 8.466,0 13.292,2.839 16.045,5.513 1.793,1.72 4.194,4.996 4.741,10.071 l -29.301,-0.383 v 7.654 z" id="path9"/>
    <path style="fill:#0e4d92" inkscape:connector-curvature="0" d="m 542.591,220.09 c 8.929,0 21.34,-2.109 29.587,-8.491 6.601,-4.965 9.712,-12.003 9.712,-18.014 0,-5.962 -3.111,-13.067 -9.712,-18.021 -8.247,-6.339 -20.658,-8.503 -29.587,-8.503 -8.813,0 -21.32,2.164 -29.72,8.503 -6.601,4.953 -9.597,12.058 -9.597,18.021 0,6.011 2.996,13.049 9.597,18.014 8.4,6.382 20.907,8.491 29.72,8.491 m 0,-46.92 c 4.747,0 10.211,1.052 14.356,6.588 3.458,4.321 3.993,9.409 3.993,13.827 0,4.418 -0.535,9.439 -3.993,13.845 -4.146,5.488 -9.609,6.497 -14.356,6.497 -4.776,0 -10.229,-1.009 -14.41,-6.497 -3.324,-4.406 -3.975,-9.427 -3.975,-13.845 0,-4.418 0.65,-9.506 3.975,-13.827 4.181,-5.536 9.633,-6.588 14.41,-6.588" id="path11"/>
    <path style="fill:#0e4d92" inkscape:connector-curvature="0" d="m 416.946,181.138 c 1.647,0.547 3.154,1.246 4.297,2.279 2.231,1.824 4.06,4.851 4.06,9.755 0,4.966 -1.829,8.005 -4.06,9.858 -1.143,1.033 -2.65,1.732 -4.297,2.267 -1.866,0.571 -3.932,0.96 -6.2,0.96 h -2.066 v -26.08 h 2.066 c 2.268,0.001 4.334,0.335 6.2,0.961 m 0,31.453 c 10.642,-0.699 16.258,-3.337 19.194,-5.215 5.579,-3.574 8.132,-8.691 8.132,-14.204 0,-7.317 -4.547,-11.748 -8.132,-14.112 -5.026,-3.361 -12.071,-4.832 -19.194,-5.282 -1.866,-0.122 -3.805,-0.122 -5.61,-0.122 h -2.091 v -6.886 h -19.023 v 6.886 h -1.975 c -1.884,0 -3.799,0 -5.665,0.122 -7.172,0.45 -14.24,1.92 -19.206,5.282 -3.598,2.364 -8.145,6.795 -8.145,14.112 0,5.513 2.577,10.63 8.145,14.204 2.923,1.878 8.515,4.516 19.206,5.215 1.732,0.024 3.574,0.146 5.665,0.146 h 1.975 v 7.36 h 19.023 v -7.36 h 2.091 c 2.042,-0.001 3.884,-0.122 5.61,-0.146 m -34.364,-31.453 c 1.793,-0.626 3.957,-0.96 6.072,-0.96 h 2.243 v 26.08 h -2.243 c -2.115,0 -4.279,-0.389 -6.072,-0.96 -1.617,-0.535 -3.1,-1.234 -4.285,-2.267 -2.152,-1.854 -4.066,-4.893 -4.066,-9.858 0,-4.904 1.914,-7.931 4.066,-9.755 1.185,-1.034 2.668,-1.733 4.285,-2.28" id="path13"/>
    <path style="fill:#0e4d92" inkscape:connector-curvature="0" d="m 311.855,220.09 c 8.825,0 21.285,-2.109 29.538,-8.491 6.546,-4.965 9.584,-12.003 9.584,-18.014 0,-5.962 -3.039,-13.067 -9.584,-18.021 -8.253,-6.339 -20.713,-8.503 -29.538,-8.503 -8.94,0 -21.4,2.164 -29.678,8.503 -6.631,4.953 -9.706,12.058 -9.706,18.021 0,6.011 3.075,13.049 9.706,18.014 8.278,6.382 20.738,8.491 29.678,8.491 m 0,-46.92 c 4.68,0 10.18,1.052 14.374,6.588 3.349,4.321 3.975,9.409 3.975,13.827 0,4.418 -0.626,9.439 -3.975,13.845 -4.194,5.488 -9.694,6.497 -14.374,6.497 -4.795,0 -10.356,-1.009 -14.514,-6.497 -3.336,-4.406 -3.811,-9.427 -3.811,-13.845 0,-4.418 0.474,-9.506 3.811,-13.827 4.158,-5.536 9.719,-6.588 14.514,-6.588" id="path15"/>
    <path style="fill:#0e4d92" inkscape:connector-curvature="0" d="m 240.089,176.197 c 2.352,0.091 5.251,0.535 7.421,1.896 2.887,1.915 3.307,4.479 3.307,6.096 0,1.58 -0.359,4.37 -3.495,6.351 -2.091,1.519 -4.74,1.926 -7.232,2.127 h -1.945 -8.861 v -16.58 h 8.861 l 1.944,0.11 z m 0,24.013 h 3.562 c 9.123,0 15.504,-1.045 20.026,-3.859 5.604,-3.549 6.91,-8.448 6.91,-12.271 0,-3.774 -1.307,-8.563 -6.91,-12.016 -4.522,-2.686 -10.654,-3.568 -20.877,-3.568 h -2.711 -29.763 v 50.087 h 18.957 V 200.21 h 10.806 z" id="path17"/>
    <path style="fill:#0e4d92" inkscape:connector-curvature="0" d="m 106.33,204.197 8.15,14.386 h 21.211 L 106.949,168.496 H 89.251 l -26.073,50.087 h 9.42 l 7.469,-14.386 h 26.263 z m -13.317,-23.952 9.481,17.115 H 83.526 l 8.965,-17.449 h 0.31 l 0.212,0.334 z" id="path19"/>
    <polygon style="fill:#0e4d92" points="618.296,176.087 638.809,176.087 638.809,168.49 578.924,168.49 578.924,176.087 599.303,176.087 599.303,218.595 618.296,218.595 " id="polygon21"/>
    <path style="fill:#0e4d92" inkscape:connector-curvature="0" d="m 104.658,260.97 -0.596,-1.775 -30.583,1.775 6.199,3.215 24.98,-3.215 z m 4.182,5.755 -0.754,-0.602 -1.294,-1.532 -15.34,3.1 6.527,2.292 10.861,-3.258 z m 12.113,-1.294 c 0.723,-0.128 1.805,-0.547 2.717,-1.246 l -4.498,-9.335 4.631,-2.315 -3.872,-3.538 -1.617,0.748 -6.661,3.19 1.957,4.741 3.172,-1.532 4.171,9.287 z m 7.542,-19.468 c 1.72,2.188 2.942,4.79 3.646,7.84 h -2.875 c -0.17,-0.924 -0.383,-1.756 -0.772,-2.625 -1.902,-5.215 -5.737,-8.989 -10.18,-12.064 l -1.629,-1.118 1.629,0.632 c 4.073,1.732 7.653,4.096 10.181,7.335 m 0,28.232 0.833,1.653 -0.833,0.486 -2.249,1.058 -2.577,-5.464 c -1.659,0.608 -3.477,0.954 -5.354,1.009 -1.915,0.085 -3.896,-0.164 -5.701,-0.796 l -2.206,5.251 -2.322,-0.462 -0.772,-1.082 0.772,-1.355 1.866,-3.61 -1.647,-1.246 1.581,-2.018 c 2.68,1.793 5.665,2.699 8.43,2.699 2.911,0.091 5.774,-0.882 8.454,-2.833 l 1.726,0.456 0.723,0.329 -0.723,0.595 -1.793,1.593 1.792,3.737 z m 36.57,-14.094 8.065,-5.428 h -43.803 c 0,1.957 -0.231,3.671 -0.833,5.081 -1.665,4.607 -5.883,6.734 -10.18,6.734 -4.121,-0.176 -8.363,-2.431 -10.229,-6.625 -0.662,-1.495 -1.051,-3.124 -1.051,-5.19 H 63.171 l 7.992,5.428 33.495,-1.757 c 0.675,2.468 1.842,4.692 3.428,6.315 2.662,2.96 6.455,4.68 10.229,4.68 3.787,0.073 7.555,-1.41 10.18,-4.583 1.507,-1.641 2.528,-3.786 3.203,-6.363 l 33.367,1.708 z m -2.291,0.869 -6.145,3.087 -24.785,-3.087 0.626,-1.775 30.304,1.775 z m -17.82,6.776 -6.771,2.328 -9.688,-3.076 -0.833,-0.273 0.833,-0.851 1.125,-1.215 15.334,3.087 z m 3.185,-0.401 5.488,-2.687 -22.306,-2.814 -1.191,1.994 18.009,3.507 z m -60.049,0 -5.409,-2.461 22.378,-2.979 1.27,1.933 -18.239,3.507 z" id="path23"/>
    <path style="fill:#0e4d92" inkscape:connector-curvature="0" d="m 229.398,258.405 h 5.403 c 1.769,0 3.215,-0.632 4.084,-1.271 1.209,-0.997 2.376,-2.802 2.474,-4.37 0.2,-1.544 -0.371,-2.31 -0.583,-2.602 -0.657,-0.681 -1.854,-1.045 -3.1,-1.045 h -5.428 l -2.85,9.288 z m 8.752,-12.375 c 1.519,0 4.285,0.079 6.023,1.823 1.1,1.265 1.361,2.833 1.1,4.352 -0.328,2.638 -1.769,5.318 -4.012,6.983 -1.793,1.343 -4.528,2.304 -7.354,2.304 h -5.476 l -3.646,11.876 h -3.586 l 8.363,-27.338 h 8.588 z" id="path25"/>
    <path style="fill:#0e4d92" inkscape:connector-curvature="0" d="m 258.365,262.987 c 0.511,-1.495 1.137,-3.872 0.34,-5.215 -0.45,-0.771 -1.446,-1.294 -2.765,-1.294 -1.44,0 -2.766,0.723 -3.683,1.592 -1.435,1.282 -2.152,3.276 -2.687,4.917 l -0.565,1.678 c -0.443,1.458 -1.191,3.774 -0.298,5.306 0.298,0.498 1.125,1.258 2.692,1.258 1.429,0 2.589,-0.535 3.543,-1.258 1.72,-1.483 2.316,-3.489 2.942,-5.306 l 0.481,-1.678 z m 3.44,-6.551 c 0.62,1.076 0.82,2.565 0.596,4.534 -0.383,2.947 -1.915,7.566 -5.178,10.283 -1.969,1.617 -4.309,2.486 -6.546,2.486 -3.464,0 -4.771,-1.915 -5.117,-2.486 -0.881,-1.434 -0.724,-3.148 -0.645,-4.382 0.395,-3.161 1.939,-7.683 5.227,-10.436 1.915,-1.592 4.358,-2.425 6.594,-2.425 2.65,0.001 4.37,1.125 5.069,2.426" id="path27"/>
    <path style="fill:#0e4d92" inkscape:connector-curvature="0" d="m 278.257,271.824 c -0.62,0.316 -1.58,0.814 -2.486,1.112 -1.313,0.486 -2.753,0.796 -4.449,0.796 -2.225,0 -3.933,-0.796 -4.802,-1.909 -0.887,-1.215 -1.209,-3.331 -0.972,-4.911 0.425,-3.44 2.4,-8.892 6.175,-11.329 1.769,-1.07 4.036,-1.568 5.786,-1.568 1.197,0 2.753,0.31 3.701,0.948 0.966,0.729 1.343,1.665 1.191,2.911 l -0.723,2.225 -3.173,0.328 c 0.486,-1.125 0.809,-2.292 0.322,-2.979 -0.273,-0.547 -1.058,-0.972 -2.413,-0.972 -0.869,0 -1.817,0.152 -2.698,0.772 -2.133,1.209 -2.875,3.251 -3.44,5.19 l -0.772,2.516 c -0.547,1.532 -0.742,3.313 -0.207,4.443 0.371,0.638 1.203,1.592 3.331,1.592 1.088,0 1.848,-0.158 2.966,-0.535 l 2.389,-0.881 0.274,2.251 z" id="path29"/>
    <path style="fill:#0e4d92" inkscape:connector-curvature="0" d="m 297.244,271.824 c -0.632,0.316 -1.653,0.814 -2.553,1.112 -1.367,0.486 -2.784,0.796 -4.455,0.796 -2.236,0 -3.908,-0.796 -4.801,-1.909 -0.972,-1.215 -1.222,-3.331 -1.021,-4.911 0.395,-3.44 2.486,-8.892 6.199,-11.329 1.689,-1.07 4.018,-1.568 5.75,-1.568 1.271,0 2.79,0.31 3.744,0.948 0.997,0.729 1.331,1.665 1.161,2.911 l -0.699,2.225 -3.185,0.328 c 0.523,-1.125 0.821,-2.292 0.334,-2.979 -0.201,-0.547 -1.082,-0.972 -2.413,-0.972 -0.875,0 -1.769,0.152 -2.692,0.772 -2.127,1.209 -2.826,3.251 -3.519,5.19 l -0.711,2.516 c -0.535,1.532 -0.735,3.313 -0.152,4.443 0.389,0.638 1.136,1.592 3.325,1.592 1.057,0 1.841,-0.158 2.887,-0.535 0.936,-0.213 1.61,-0.468 2.382,-0.881 l 0.419,2.251 z" id="path31"/>
    <polygon style="fill:#0e4d92" points="319.118,258.508 305.936,273.368 302.052,273.368 307.88,254.327 311.192,254.327 306.646,269.174 319.793,254.327 323.64,254.327 317.799,273.368 314.535,273.368 " id="polygon33"/>
    <path style="fill:#0e4d92" inkscape:connector-curvature="0" d="m 345.988,246.371 -0.273,1.185 c -0.371,1.094 -0.906,2.194 -2.577,3.088 -1.258,0.583 -2.4,0.857 -3.598,0.857 -0.856,0 -2.236,-0.024 -3.124,-0.857 -0.407,-0.359 -1.033,-1.082 -0.918,-2.279 l 0.772,-1.994 h 2.51 l -0.097,0.462 0.085,1.732 1.495,0.559 1.805,-0.559 1.222,-1.708 0.109,-0.486 h 2.589 z m -5.355,26.997 h -3.258 l 4.583,-14.86 -13.207,14.86 h -3.835 l 5.823,-19.042 h 3.239 l -4.534,14.848 13.134,-14.848 h 3.859 l -5.804,19.042 z" id="path35"/>
    <path style="fill:#0e4d92" inkscape:connector-curvature="0" d="m 361.225,271.824 c -0.656,0.316 -1.653,0.814 -2.589,1.112 -1.307,0.486 -2.784,0.796 -4.467,0.796 -2.176,0 -3.908,-0.796 -4.801,-1.909 -0.888,-1.215 -1.173,-3.331 -0.96,-4.911 0.438,-3.44 2.449,-8.892 6.199,-11.329 1.69,-1.07 3.981,-1.568 5.713,-1.568 1.246,0 2.814,0.31 3.792,0.948 0.912,0.729 1.325,1.665 1.161,2.911 l -0.784,2.225 -3.063,0.328 c 0.45,-1.125 0.76,-2.292 0.25,-2.979 -0.25,-0.547 -1.009,-0.972 -2.401,-0.972 -0.9,0 -1.805,0.152 -2.705,0.772 -2.066,1.209 -2.863,3.251 -3.482,5.19 l -0.772,2.516 c -0.474,1.532 -0.675,3.313 -0.152,4.443 0.401,0.638 1.209,1.592 3.349,1.592 1.058,0 1.817,-0.158 2.966,-0.535 l 2.401,-0.881 0.345,2.251 z" id="path37"/>
    <path style="fill:#0e4d92" inkscape:connector-curvature="0" d="m 377.933,273.368 -0.833,-6.023 -0.759,-2.127 -1.745,-0.559 h -2.625 l -2.638,8.709 h -3.325 l 5.871,-19.042 h 3.252 l -2.316,7.579 h 2.316 l 2.352,-0.656 1.483,-1.866 1.355,-2.097 c 0.808,-1.215 1.428,-2.437 3.002,-2.984 l 1.538,-0.286 1.623,0.286 -1.136,2.492 -1.453,0.213 -1.1,1.355 -1.045,1.629 c -0.468,0.771 -0.784,1.507 -1.763,2.164 l -1.841,0.96 -0.079,0.164 1.647,1.069 0.742,1.915 0.96,7.105 h -3.483 z" id="path39"/>
    <polygon style="fill:#0e4d92" points="402.73,258.508 389.56,273.368 385.73,273.368 391.528,254.327 394.762,254.327 390.222,269.174 403.429,254.327 407.3,254.327 401.436,273.368 398.135,273.368 " id="polygon41"/>
    <path style="fill:#0e4d92" inkscape:connector-curvature="0" d="m 421.917,262.155 0.116,-0.772 c 0.37,-1.282 0.783,-2.668 0.188,-3.713 -0.449,-1.033 -1.446,-1.191 -2.121,-1.191 -1.343,0 -2.413,0.432 -3.361,1.294 -0.881,0.821 -1.805,2.115 -2.401,3.92 l -0.109,0.462 h 7.688 z m -8.6,3.057 c -0.371,1.27 -0.735,3.087 -0.085,4.2 0.51,0.93 1.854,1.58 3.622,1.58 1.13,0 1.976,-0.188 2.899,-0.523 l 2.364,-0.899 0.376,2.255 c -0.65,0.31 -1.659,0.821 -2.528,1.106 -1.41,0.486 -2.887,0.808 -4.443,0.808 -3.452,0 -4.965,-1.726 -5.506,-2.747 -1.763,-3.215 0.401,-10.995 4.382,-14.514 1.841,-1.635 4.096,-2.467 6.302,-2.467 2.589,0 3.969,1.185 4.588,2.23 1.137,2.103 0.377,4.729 -0.51,7.555 l -0.286,0.856 h -11.086 l -0.089,0.56 z" id="path43"/>
    <path style="fill:#0e4d92" inkscape:connector-curvature="0" d="m 459.053,264.507 h -2.899 c -1.866,0 -3.112,0.377 -4.084,0.948 -1.095,0.796 -1.72,2.03 -1.891,3.124 l 0.383,1.744 2.194,0.845 c 1.154,0 1.914,-0.249 2.96,-0.918 l 2.103,-1.671 1.234,-4.072 z m -1.654,6.491 h -0.177 c -0.687,0.668 -1.507,1.355 -2.553,1.938 -1.166,0.596 -2.103,0.796 -3.458,0.796 -1.112,0 -2.479,-0.109 -3.488,-0.96 -0.656,-0.632 -1.429,-1.677 -1.131,-3.434 0.201,-1.793 1.131,-4.03 3.507,-5.598 1.246,-0.803 3.301,-1.581 6.85,-1.581 h 2.826 l 0.809,-2.407 c 0.146,-0.559 0.535,-1.878 -0.426,-2.625 -0.273,-0.261 -0.917,-0.657 -2.291,-0.657 -0.681,0 -1.866,0.085 -2.838,0.657 -0.846,0.413 -1.252,1.07 -1.666,2.23 l -2.959,-0.164 c 0.133,-1.434 0.941,-2.948 2.661,-4.005 1.927,-1.1 4.595,-1.173 5.737,-1.173 1.994,0 3.981,0.474 4.832,1.684 0.371,0.632 0.547,1.489 0.432,2.759 -0.134,0.924 -0.383,1.647 -0.723,2.589 l -3.744,12.326 h -2.973 l 0.773,-2.375 z" id="path45"/>
    <path style="fill:#0e4d92" inkscape:connector-curvature="0" d="m 472.484,262.422 h 4.169 c 0.632,0 1.714,-0.146 2.65,-0.76 0.899,-0.692 1.435,-1.665 1.604,-2.759 l -0.669,-1.581 -1.769,-0.45 h -4.321 l -1.664,5.55 z m -2.588,8.418 h 4.369 c 1.295,0 2.152,-0.389 2.796,-0.796 0.961,-0.638 1.495,-1.744 1.696,-3.002 l -0.608,-1.616 -1.805,-0.535 h -4.619 l -1.829,5.949 z m 1.78,-16.507 h 8.224 c 1.435,0 2.838,0.176 3.822,1.447 0.426,0.547 0.663,1.416 0.511,2.625 -0.085,1.24 -0.711,2.425 -1.678,3.446 -0.96,0.869 -1.871,1.258 -2.553,1.435 v 0.085 c 1.033,0.262 1.593,0.906 1.757,1.282 0.273,0.56 0.56,1.216 0.432,2.249 -0.158,1.289 -0.845,3.239 -2.947,4.844 -1.757,1.271 -3.386,1.635 -5.282,1.635 h -8.053 l 5.767,-19.048 z" id="path47"/>
    <polygon style="fill:#0e4d92" points="502.873,258.508 489.781,273.368 485.946,273.368 491.745,254.327 495.021,254.327 490.511,269.174 503.535,254.327 507.353,254.327 501.555,273.368 498.254,273.368 " id="polygon49"/>
    <path style="fill:#0e4d92" inkscape:connector-curvature="0" d="m 520.967,264.507 h -2.948 c -1.848,0 -3.1,0.377 -3.999,0.948 -1.143,0.796 -1.842,2.03 -1.963,3.124 l 0.419,1.744 2.194,0.845 c 1.167,0 1.866,-0.249 2.973,-0.918 l 2.066,-1.671 1.258,-4.072 z m -1.617,6.491 h -0.176 c -0.724,0.668 -1.531,1.355 -2.638,1.938 -1.173,0.596 -2.019,0.796 -3.337,0.796 -1.222,0 -2.553,-0.109 -3.55,-0.96 -0.692,-0.632 -1.379,-1.677 -1.13,-3.434 0.225,-1.793 1.13,-4.03 3.458,-5.598 1.331,-0.803 3.324,-1.581 6.898,-1.581 h 2.802 l 0.784,-2.407 c 0.17,-0.559 0.559,-1.878 -0.365,-2.625 -0.334,-0.261 -0.881,-0.657 -2.278,-0.657 -0.729,0 -1.902,0.085 -2.863,0.657 -0.881,0.413 -1.295,1.07 -1.726,2.23 l -2.851,-0.164 c 0.072,-1.434 0.881,-2.948 2.625,-4.005 1.939,-1.1 4.596,-1.173 5.738,-1.173 1.89,0 3.896,0.474 4.752,1.684 0.353,0.632 0.565,1.489 0.45,2.759 -0.146,0.924 -0.371,1.647 -0.699,2.589 l -3.769,12.326 h -2.898 l 0.773,-2.375 z" id="path51"/>
    <path style="fill:#0e4d92" inkscape:connector-curvature="0" d="m 540.36,273.368 h -3.257 l 5.014,-16.24 h -5.239 l -0.638,2.066 c -0.833,2.492 -1.744,4.99 -2.699,7.415 -0.875,1.97 -1.908,4.225 -4.145,5.744 -1.258,0.869 -2.826,1.294 -4.097,1.489 v -2.747 c 0.882,-0.176 2.091,-0.687 2.936,-1.271 1.344,-0.96 2.104,-2.479 2.613,-3.872 0.797,-1.878 2.353,-6.078 3.027,-8.454 l 1.069,-3.172 h 11.214 l -5.798,19.042 z" id="path53"/>
    <polygon style="fill:#0e4d92" points="563.827,258.508 550.729,273.368 546.931,273.368 552.711,254.327 555.944,254.327 551.44,269.174 564.508,254.327 568.343,254.327 562.545,273.368 559.305,273.368 " id="polygon55"/>
    <polygon style="fill:#0e4d92" points="572.275,273.368 569.054,273.368 574.9,254.327 578.104,254.327 575.764,262.021 583.901,262.021 586.254,254.327 589.438,254.327 583.677,273.368 580.492,273.368 583.045,264.756 574.955,264.756 " id="polygon57"/>
    <polygon style="fill:#0e4d92" points="607.161,258.508 594.058,273.368 590.283,273.368 596.033,254.327 599.26,254.327 594.751,269.174 607.775,254.327 611.646,254.327 605.867,273.368 602.634,273.368 " id="polygon59"/>
    <g id="g61">
      <path style="fill:#010101" inkscape:connector-curvature="0" d="m 727.981,168.065 c -0.937,1.222 -8.156,11.177 -8.156,11.177 0,0 -3.039,4.145 -3.465,4.741 -25.022,3.027 -51.466,16.781 -80.312,41.682 18.216,-20.66 45.25,-48.733 91.933,-57.6 m 43.085,-25.101 c 9.913,-1.265 20.543,-3.191 31.514,-11.499 -3.872,5.542 -8.734,12.459 -8.734,12.459 -9.693,14.07 -16.646,15.243 -23.351,16.155 l -14.027,1.033 -12.149,0.814 c -5.075,0.638 -8.837,1.75 -12.144,3.519 4.528,-6.09 10.605,-13.359 15.948,-16.927 5.567,-3.731 12.016,-4.376 16.318,-4.734 l 2.504,-0.273 4.121,-0.547 z m -0.267,-2.11 -4.163,0.584 -2.334,0.225 c -4.467,0.407 -11.335,1.015 -17.249,5.051 -5.974,4.017 -12.751,12.326 -17.516,18.731 -51.539,9.159 -79.801,41.329 -98.526,62.692 l -11.694,14.368 1.981,-0.589 c 35.166,-34.157 66.406,-52.451 95.798,-55.903 l 0.371,-0.024 3.969,-5.482 8.175,-11.256 c 3.385,-3.228 8.047,-4.346 14.933,-5.166 l 11.967,-0.814 14.289,-1.07 c 6.631,-0.917 14.465,-2.243 24.725,-17.012 l 12.994,-18.58 -1.556,-1.367 c -11.841,12.361 -24.136,14.081 -36.164,15.612" id="path63"/>
      <g id="g65">
        <defs id="defs67">
          <path inkscape:connector-curvature="0" id="SVGID_1_" d="m 620.617,241.211 -7.67,8.333 c 38.479,-29.501 60.535,-32.03 92.218,-31.677 2.924,0.182 5.726,0.353 7.543,-3.659 l 9.463,-13.656 c -44.222,0.467 -64.267,11.844 -101.554,40.659"/>
        </defs>
        <clipPath id="clipPath3397">
          <use height="1052.3622" width="744.09448" y="0" x="0" style="overflow:visible" xlink:href="#SVGID_1_" overflow="visible" id="use3399"/>
        </clipPath>
        <linearGradient id="linearGradient3401" gradientUnits="userSpaceOnUse" x1="-84.539597" y1="768.92383" x2="-72.551003" y2="768.92383" gradientTransform="matrix(4.1902,3.9074,3.9074,-4.1902,-2009.6055,3752.252)">
          <stop offset="0" style="stop-color:#C02026" id="stop3403"/>
          <stop offset="0.0464" style="stop-color:#C52026" id="stop3405"/>
          <stop offset="0.3" style="stop-color:#E21F26" id="stop3407"/>
          <stop offset="0.3919" style="stop-color:#EA705E" id="stop3409"/>
          <stop offset="0.5" style="stop-color:#F4B4B3" id="stop3411"/>
          <stop offset="0.6184" style="stop-color:#EA705E" id="stop3413"/>
          <stop offset="0.7191" style="stop-color:#E21F26" id="stop3415"/>
          <stop offset="0.9566" style="stop-color:#C52026" id="stop3417"/>
          <stop offset="1" style="stop-color:#C02026" id="stop3419"/>
        </linearGradient>
        <polygon style="fill:url(#SVGID_3_)" clip-path="url(#SVGID_2_)" points="663.745,143.067 745.346,223.336 671.367,307.015 589.773,226.758 " id="polygon92"/>
      </g>
      <g id="g94">
        <defs id="defs96">
          <path inkscape:connector-curvature="0" id="SVGID_4_" d="m 620.569,241.144 c 37.561,-36.521 68.86,-52.949 96.387,-56.183 2.438,-3.397 10.77,-14.763 13.426,-18.574 l -0.012,-0.012 c -62.796,10.8 -90.462,55.618 -109.801,74.769"/>
        </defs>
        <clipPath id="clipPath3425">
          <use height="1052.3622" width="744.09448" y="0" x="0" style="overflow:visible" xlink:href="#SVGID_4_" overflow="visible" id="use3427"/>
        </clipPath>
        <linearGradient id="linearGradient3429" gradientUnits="userSpaceOnUse" x1="-111.6519" y1="745.4043" x2="-99.778702" y2="745.4043" gradientTransform="matrix(7.0873,4.9626,4.9626,-7.0873,-2266.7031,6016.6758)">
          <stop offset="0" style="stop-color:#FFFFFF" id="stop3431"/>
          <stop offset="0.3427" style="stop-color:#FFFFFF" id="stop3433"/>
          <stop offset="0.55" style="stop-color:#FFFFFF" id="stop3435"/>
          <stop offset="0.9101" style="stop-color:#D4DBEC" id="stop3437"/>
          <stop offset="1" style="stop-color:#D4DBEC" id="stop3439"/>
        </linearGradient>
        <polygon style="fill:url(#SVGID_6_)" clip-path="url(#SVGID_5_)" points="656.701,111.943 763.682,190.972 694.256,295.564 587.269,216.541 " id="polygon113"/>
      </g>
      <g id="g115">
        <defs id="defs117">
          <path inkscape:connector-curvature="0" id="SVGID_7_" d="m 622.544,239.011 c -0.802,0.778 -3.379,3.726 -4.09,4.406 22.007,-17.115 40.472,-34.935 86.358,-41.536 2.273,-2.698 8.904,-11.961 12.089,-16.89 l -0.012,-0.03 c -41.869,6.072 -69.213,30.662 -94.345,54.05"/>
        </defs>
        <clipPath id="clipPath3445">
          <use height="1052.3622" width="744.09448" y="0" x="0" style="overflow:visible" xlink:href="#SVGID_7_" overflow="visible" id="use3447"/>
        </clipPath>
        <linearGradient id="linearGradient3449" gradientUnits="userSpaceOnUse" x1="-24.271999" y1="803.37109" x2="-12.2804" y2="803.37109" gradientTransform="matrix(2.5449,2.3732,2.3732,-2.5449,-1190.0859,2304.2031)">
          <stop offset="0" style="stop-color:#0A4E92" id="stop3451"/>
          <stop offset="0.1067" style="stop-color:#0A4E92" id="stop3453"/>
          <stop offset="0.1941" style="stop-color:#2D5A9B" id="stop3455"/>
          <stop offset="0.3786" style="stop-color:#657DB4" id="stop3457"/>
          <stop offset="0.5" style="stop-color:#889DCB" id="stop3459"/>
          <stop offset="0.5146" style="stop-color:#8399C8" id="stop3461"/>
          <stop offset="0.6651" style="stop-color:#5974AD" id="stop3463"/>
          <stop offset="0.7949" style="stop-color:#355F9E" id="stop3465"/>
          <stop offset="0.8977" style="stop-color:#185295" id="stop3467"/>
          <stop offset="0.9607" style="stop-color:#0A4E92" id="stop3469"/>
          <stop offset="1" style="stop-color:#0A4E92" id="stop3471"/>
        </linearGradient>
        <polygon style="fill:url(#SVGID_9_)" clip-path="url(#SVGID_8_)" points="664.244,133.167 744.543,212.153 671.111,295.224 590.818,216.231 " id="polygon146"/>
      </g>
      <g id="g148">
        <defs id="defs150">
          <path inkscape:connector-curvature="0" id="SVGID_10_" d="m 702.437,204.799 c -1.216,3.452 0.662,2.03 6.096,5.439 4.692,2.924 3.671,4.005 3.264,5.543 4.267,-6.442 11.852,-15.741 11.852,-15.741 -1.829,-0.656 -3.822,-0.948 -5.816,-0.948 -7.295,0 -14.734,3.671 -15.396,5.707"/>
        </defs>
        <clipPath id="clipPath3477">
          <use height="1052.3622" width="744.09448" y="0" x="0" style="overflow:visible" xlink:href="#SVGID_10_" overflow="visible" id="use3479"/>
        </clipPath>
        <linearGradient id="linearGradient3481" gradientUnits="userSpaceOnUse" x1="35.913101" y1="792.90332" x2="47.736301" y2="792.90332" gradientTransform="matrix(2.4071,1.5041,1.5041,-2.4071,-582.8906,2051.8301)">
          <stop offset="0" style="stop-color:#C02026" id="stop3483"/>
          <stop offset="0.0773" style="stop-color:#C52026" id="stop3485"/>
          <stop offset="0.5" style="stop-color:#E21F26" id="stop3487"/>
          <stop offset="0.7298" style="stop-color:#EA705E" id="stop3489"/>
          <stop offset="1" style="stop-color:#F4B4B3" id="stop3491"/>
        </linearGradient>
        <polygon style="fill:url(#SVGID_12_)" clip-path="url(#SVGID_11_)" points="707.523,188.456 730.765,203.784 717.357,226.43 694.116,211.102 " id="polygon167"/>
      </g>
      <g id="g169">
        <defs id="defs171">
          <path inkscape:connector-curvature="0" id="SVGID_13_" d="m 744.811,162.09 c -8.569,1.204 -14.003,3.452 -17.425,8.041 l -11.979,16.92 c 2.613,-2.431 10.49,-3.665 19.042,-3.877 h 1.239 1.016 c 1.215,0 2.54,-0.128 3.811,-0.128 12.191,-0.504 29.094,-2.31 38.916,-14.41 l 14.72,-21.509 1.793,-2.577 c -12.789,17.765 -42.035,16.246 -51.133,17.54"/>
        </defs>
        <clipPath id="clipPath3497">
          <use height="1052.3622" width="744.09448" y="0" x="0" style="overflow:visible" xlink:href="#SVGID_13_" overflow="visible" id="use3499"/>
        </clipPath>
        <linearGradient id="linearGradient3501" gradientUnits="userSpaceOnUse" x1="-71.567902" y1="778.51367" x2="-59.657299" y2="778.51367" gradientTransform="matrix(4.3638,3.4217,3.4217,-4.3638,-1621.5039,3787.8457)">
          <stop offset="0" style="stop-color:#D5DEEF" id="stop3503"/>
          <stop offset="0.073" style="stop-color:#D5DEEF" id="stop3505"/>
          <stop offset="0.2236" style="stop-color:#7687B8" id="stop3507"/>
          <stop offset="0.3708" style="stop-color:#0A4E92" id="stop3509"/>
          <stop offset="0.4289" style="stop-color:#155194" id="stop3511"/>
          <stop offset="0.5101" style="stop-color:#2D5A99" id="stop3513"/>
          <stop offset="0.6049" style="stop-color:#4A68A3" id="stop3515"/>
          <stop offset="0.71" style="stop-color:#6C7FB2" id="stop3517"/>
          <stop offset="0.8237" style="stop-color:#95A3CA" id="stop3519"/>
          <stop offset="0.9427" style="stop-color:#D1DAEC" id="stop3521"/>
          <stop offset="0.9494" style="stop-color:#D5DEEF" id="stop3523"/>
          <stop offset="1" style="stop-color:#D5DEEF" id="stop3525"/>
        </linearGradient>
        <polygon style="fill:url(#SVGID_15_)" clip-path="url(#SVGID_14_)" points="746.068,103.276 815.507,160.723 765.28,228.308 695.824,170.867 " id="polygon202"/>
      </g>
      <g id="g204">
        <defs id="defs206">
          <path inkscape:connector-curvature="0" id="SVGID_16_" d="m 766.818,142.453 c -3.763,0.511 -12.198,0.438 -19.255,5.215 -7.05,4.637 -15.511,15.972 -19.691,21.85 3.865,-4.376 8.982,-5.659 16.58,-6.516 7.53,-0.942 18.494,-0.723 26.183,-1.89 7.5,-0.991 14.404,-2.613 24.014,-16.562 l 13.043,-18.567 c -13.543,14.148 -28.262,14.744 -40.874,16.47"/>
        </defs>
        <clipPath id="clipPath3531">
          <use height="1052.3622" width="744.09448" y="0" x="0" style="overflow:visible" xlink:href="#SVGID_16_" overflow="visible" id="use3533"/>
        </clipPath>
        <linearGradient id="linearGradient3535" gradientUnits="userSpaceOnUse" x1="-73.518097" y1="780.98633" x2="-61.608002" y2="780.98633" gradientTransform="matrix(4.4416,3.4827,3.4827,-4.4416,-1650.793,3852.834)">
          <stop offset="0" style="stop-color:#FFFFFF" id="stop3537"/>
          <stop offset="0.1742" style="stop-color:#FFFFFF" id="stop3539"/>
          <stop offset="0.2487" style="stop-color:#F6F7FB" id="stop3541"/>
          <stop offset="0.3471" style="stop-color:#E4E8F4" id="stop3543"/>
          <stop offset="0.3539" style="stop-color:#E3E7F3" id="stop3545"/>
          <stop offset="0.405" style="stop-color:#E9ECF6" id="stop3547"/>
          <stop offset="0.5599" style="stop-color:#F8F8FC" id="stop3549"/>
          <stop offset="0.7" style="stop-color:#FFFFFF" id="stop3551"/>
          <stop offset="1" style="stop-color:#FFFFFF" id="stop3553"/>
        </linearGradient>
        <polygon style="fill:url(#SVGID_18_)" clip-path="url(#SVGID_17_)" points="758.267,85.091 827.717,142.568 777.303,210.396 707.846,152.943 " id="polygon231"/>
      </g>
      <g id="g233">
        <defs id="defs235">
          <path inkscape:connector-curvature="0" id="SVGID_19_" d="m 751.879,180.938 c -9.208,1.343 -19.704,1.708 -22.73,1.933 -5.124,0.201 -12.028,1.921 -13.918,4.352 -5.738,7.622 -11.299,14.66 -12.794,17.577 3.556,-3.458 15.127,-3.057 29.24,-3.713 14.112,-0.681 28.389,-7.142 39.682,-20.677 l 8.503,-12.459 c -5.726,7.772 -15.803,11.212 -27.983,12.987"/>
        </defs>
        <clipPath id="clipPath3559">
          <use height="1052.3622" width="744.09448" y="0" x="0" style="overflow:visible" xlink:href="#SVGID_19_" overflow="visible" id="use3561"/>
        </clipPath>
        <linearGradient id="linearGradient3563" gradientUnits="userSpaceOnUse" x1="-65.620598" y1="777.35553" x2="-53.7085" y2="777.35553" gradientTransform="matrix(4.1368,3.2437,3.2437,-4.1368,-1533.8633,3595.3926)">
          <stop offset="0" style="stop-color:#F4B4B3" id="stop3565"/>
          <stop offset="0.0562" style="stop-color:#F4B4B3" id="stop3567"/>
          <stop offset="0.0962" style="stop-color:#F4B1AF" id="stop3569"/>
          <stop offset="0.14" style="stop-color:#F3A8A4" id="stop3571"/>
          <stop offset="0.1856" style="stop-color:#F09A91" id="stop3573"/>
          <stop offset="0.2324" style="stop-color:#EE8879" id="stop3575"/>
          <stop offset="0.2802" style="stop-color:#EA705E" id="stop3577"/>
          <stop offset="0.328" style="stop-color:#E64F3E" id="stop3579"/>
          <stop offset="0.3708" style="stop-color:#E21F26" id="stop3581"/>
          <stop offset="0.3867" style="stop-color:#DD1F26" id="stop3583"/>
          <stop offset="0.5169" style="stop-color:#C02026" id="stop3585"/>
          <stop offset="0.7221" style="stop-color:#DD1F26" id="stop3587"/>
          <stop offset="0.7472" style="stop-color:#E21F26" id="stop3589"/>
          <stop offset="0.7726" style="stop-color:#E43D32" id="stop3591"/>
          <stop offset="0.8652" style="stop-color:#EC8070" id="stop3593"/>
          <stop offset="0.9299" style="stop-color:#F2A49F" id="stop3595"/>
          <stop offset="0.9607" style="stop-color:#F4B4B3" id="stop3597"/>
          <stop offset="1" style="stop-color:#F4B4B3" id="stop3599"/>
        </linearGradient>
        <polygon style="fill:url(#SVGID_21_)" clip-path="url(#SVGID_20_)" points="731.92,128.286 796.824,181.977 750.396,244.462 685.474,190.765 " id="polygon278"/>
      </g>
    </g>
    <polygon style="fill:#0e4d92" points="629.321,258.508 616.193,273.368 612.419,273.368 618.168,254.327 621.456,254.327 616.916,269.174 629.983,254.327 633.807,254.327 628.002,273.368 624.744,273.368 " id="polygon280"/>
  </g>
</svg>